SplineFontDB: 3.2
FontName: NFCode-Regular
FullName: NF Code Regular
FamilyName: NF Code
Weight: Book
Version: 1.000
ItalicAngle: 0
UnderlinePosition: -100
UnderlineWidth: 50
Ascent: 800
Descent: 200
InvalidEm: 0
sfntRevision: 0x00010000
LayerCount: 2
Layer: 0 1 "Back" 1
Layer: 1 1 "Fore" 0
XUID: [1021 489 479332876 11517391]
StyleMap: 0x0040
FSType: 8
OS2Version: 3
OS2_WeightWidthSlopeOnly: 0
OS2_UseTypoMetrics: 0
CreationTime: 1585746870
ModificationTime: 1699204141
PfmFamily: 81
TTFWeight: 400
TTFWidth: 5
LineGap: 0
VLineGap: 0
Panose: 0 0 5 0 0 0 0 0 0 0
OS2TypoAscent: 760
OS2TypoAOffset: 0
OS2TypoDescent: -200
OS2TypoDOffset: 0
OS2TypoLinegap: 240
OS2WinAscent: 1000
OS2WinAOffset: 0
OS2WinDescent: 200
OS2WinDOffset: 0
HheadAscent: 1000
HheadAOffset: 0
HheadDescent: -200
HheadDOffset: 0
OS2SubXSize: 650
OS2SubYSize: 600
OS2SubXOff: 0
OS2SubYOff: 75
OS2SupXSize: 650
OS2SupYSize: 600
OS2SupXOff: 0
OS2SupYOff: 350
OS2StrikeYSize: 50
OS2StrikeYPos: 336
OS2CapHeight: 760
OS2XHeight: 560
OS2Vendor: 'UKWN'
OS2CodePages: 20000001.00000000
OS2UnicodeRanges: 00000003.00000000.00000000.00000000
Lookup: 6 0 0 "'ccmp' Glyph Composition/Decomposition lookup 0" { "'ccmp' Glyph Composition/Decomposition lookup 0 contextual 0"  "'ccmp' Glyph Composition/Decomposition lookup 0 contextual 1"  } ['ccmp' ('DFLT' <'dflt' > ) ]
Lookup: 4 8 1 "'liga' Standard Ligatures lookup 1" { "'liga' Standard Ligatures lookup 1 subtable"  } ['liga' ('DFLT' <'dflt' > ) ]
Lookup: 1 0 0 "Single Substitution lookup 2" { "Single Substitution lookup 2 subtable"  } []
Lookup: 258 8 0 "'kern' Horizontal Kerning lookup 0" { "'kern' Horizontal Kerning lookup 0 subtable"  } ['kern' ('DFLT' <'dflt' > ) ]
Lookup: 260 0 0 "'mark' Mark Positioning lookup 1" { "'mark' Mark Positioning lookup 1 subtable"  } ['mark' ('DFLT' <'dflt' > ) ]
Lookup: 260 0 0 "'mark' Mark Positioning lookup 2" { "'mark' Mark Positioning lookup 2 subtable"  } ['mark' ('DFLT' <'dflt' > ) ]

StartChar: .notdef
Encoding: 65536 -1 0
Width: 480
GlyphClass: 1
Flags: W
LayerCount: 2
Fore
SplineSet
394 760 m 1,0,-1
 394 -200 l 1,1,-1
 89 -200 l 1,2,-1
 89 760 l 1,3,-1
 394 760 l 1,0,-1
320 696 m 1,4,-1
 161 696 l 1,5,-1
 161 664 l 1,6,-1
 224 664 l 1,7,-1
 224 628 l 1,8,-1
 160 628 l 1,9,-1
 160 597 l 1,10,-1
 320 597 l 1,11,-1
 320 628 l 1,12,-1
 256 628 l 1,13,-1
 256 664 l 1,14,-1
 320 664 l 1,15,-1
 320 696 l 1,4,-1
256 572 m 1,16,-1
 160 572 l 1,17,-1
 160 472 l 1,18,-1
 320 472 l 1,19,-1
 320 505 l 1,20,-1
 256 505 l 1,21,-1
 256 572 l 1,16,-1
224 539 m 1,22,-1
 224 505 l 1,23,-1
 192 505 l 1,24,-1
 192 539 l 1,25,-1
 224 539 l 1,22,-1
320 446 m 1,26,-1
 160 446 l 1,27,-1
 160 414 l 1,28,-1
 224 414 l 1,29,-1
 224 379 l 1,30,-1
 160 379 l 1,31,-1
 160 347 l 1,32,-1
 256 347 l 1,33,-1
 256 414 l 1,34,-1
 320 414 l 1,35,-1
 320 446 l 1,26,-1
320 388 m 1,36,-1
 288 388 l 1,37,-1
 288 325 l 1,38,-1
 160 325 l 1,39,-1
 160 292 l 1,40,-1
 320 292 l 1,41,-1
 320 388 l 1,36,-1
320 271 m 1,42,-1
 224 271 l 1,43,-1
 224 218 l 1,44,-1
 256 218 l 1,45,-1
 256 240 l 1,46,-1
 288 240 l 1,47,-1
 288 195 l 1,48,-1
 192 195 l 1,49,-1
 192 271 l 1,50,-1
 160 271 l 1,51,-1
 160 163 l 1,52,-1
 320 163 l 1,53,-1
 320 271 l 1,42,-1
320 105 m 1,54,-1
 160 105 l 1,55,-1
 160 -3 l 1,56,-1
 320 -3 l 1,57,-1
 320 105 l 1,54,-1
288 74 m 1,58,-1
 288 28 l 1,59,-1
 192 28 l 1,60,-1
 192 74 l 1,61,-1
 288 74 l 1,58,-1
320 -25 m 1,62,-1
 160 -25 l 1,63,-1
 160 -57 l 1,64,-1
 228 -57 l 1,65,-1
 160 -102 l 1,66,-1
 160 -134 l 1,67,-1
 320 -134 l 1,68,-1
 320 -102 l 1,69,-1
 222 -102 l 1,70,-1
 289 -57 l 1,71,-1
 320 -57 l 1,72,-1
 320 -25 l 1,62,-1
EndSplineSet
EndChar

StartChar: A
Encoding: 65 65 2
Width: 640
GlyphClass: 2
Flags: W
AnchorPoint: "Anchor-3" 320 760 basechar 0
AnchorPoint: "Anchor-2" 320 0 basechar 0
LayerCount: 2
Fore
SplineSet
138 292.5 m 128,-1,1
 196 506 196 506 280 760 c 1,2,-1
 360 760 l 1,3,4
 444 506 444 506 502 292.5 c 128,-1,5
 560 79 560 79 560 0 c 1,6,-1
 480 0 l 1,7,8
 480 65 480 65 440 240 c 1,9,-1
 200 240 l 1,10,11
 160 65 160 65 160 0 c 1,12,-1
 80 0 l 1,13,0
 80 79 80 79 138 292.5 c 128,-1,1
320 640 m 1,15,16
 258 462 258 462 220 310 c 1,17,-1
 420 310 l 1,18,14
 382 462 382 462 320 640 c 1,15,16
EndSplineSet
EndChar

StartChar: AE
Encoding: 198 198 9
Width: 880
GlyphClass: 2
Flags: W
AnchorPoint: "Anchor-3" 600 760 basechar 0
AnchorPoint: "Anchor-2" 600 0 basechar 0
LayerCount: 2
Fore
SplineSet
480 690 m 1,0,-1
 480 420 l 1,1,-1
 760 420 l 1,2,-1
 760 350 l 1,3,-1
 480 350 l 1,4,-1
 480 70 l 1,5,-1
 800 70 l 1,6,-1
 800 0 l 1,7,-1
 400 0 l 1,8,-1
 400 350 l 1,9,-1
 210 350 l 1,10,-1
 201 312 l 2,11,12
 174 193 174 193 157 112 c 128,-1,13
 140 31 140 31 140 0 c 1,14,-1
 60 0 l 1,15,16
 60 79 60 79 118 292.5 c 128,-1,17
 176 506 176 506 260 760 c 1,18,-1
 800 760 l 1,19,-1
 800 690 l 1,20,-1
 480 690 l 1,0,-1
400 420 m 1,21,-1
 400 690 l 1,22,-1
 310 690 l 1,23,24
 268 572 268 572 230 420 c 1,25,-1
 400 420 l 1,21,-1
EndSplineSet
EndChar

StartChar: B
Encoding: 66 66 10
Width: 560
GlyphClass: 1
Flags: W
LayerCount: 2
Fore
SplineSet
80 760 m 1,0,-1
 280 760 l 2,1,2
 370 760 370 760 420 710 c 128,-1,3
 470 660 470 660 470 570 c 0,4,5
 470 507 470 507 457 468 c 128,-1,6
 444 429 444 429 411.5 409.5 c 128,-1,7
 379 390 379 390 320 390 c 1,8,9
 407 390 407 390 443.5 342.5 c 128,-1,10
 480 295 480 295 480 200 c 0,11,12
 480 110 480 110 425 55 c 128,-1,13
 370 0 370 0 280 0 c 2,14,-1
 80 0 l 1,15,-1
 80 760 l 1,0,-1
354 464 m 128,-1,17
 390 508 390 508 390 570 c 0,18,19
 390 631 390 631 364.5 660.5 c 128,-1,20
 339 690 339 690 280 690 c 2,21,-1
 160 690 l 1,22,-1
 160 420 l 1,23,-1
 260 420 l 2,24,16
 318 420 318 420 354 464 c 128,-1,17
369.5 104.5 m 128,-1,26
 400 139 400 139 400 200 c 0,27,28
 400 240 400 240 381.5 274.5 c 128,-1,29
 363 309 363 309 331 329.5 c 128,-1,30
 299 350 299 350 260 350 c 2,31,-1
 160 350 l 1,32,-1
 160 70 l 1,33,-1
 280 70 l 2,34,25
 339 70 339 70 369.5 104.5 c 128,-1,26
EndSplineSet
EndChar

StartChar: C
Encoding: 67 67 11
Width: 560
GlyphClass: 2
Flags: W
AnchorPoint: "Anchor-3" 280 760 basechar 0
AnchorPoint: "Anchor-2" 280 0 basechar 0
LayerCount: 2
Fore
SplineSet
135 45 m 128,-1,1
 80 100 80 100 80 190 c 2,2,-1
 80 570 l 2,3,4
 80 660 80 660 135 715 c 128,-1,5
 190 770 190 770 280 770 c 0,6,7
 374 770 374 770 427 728.5 c 128,-1,8
 480 687 480 687 480 600 c 1,9,-1
 400 600 l 1,10,11
 400 658 400 658 371.5 679 c 128,-1,12
 343 700 343 700 280 700 c 0,13,14
 160 700 160 700 160 580 c 2,15,-1
 160 180 l 2,16,17
 160 60 160 60 280 60 c 0,18,19
 343 60 343 60 371.5 81.5 c 128,-1,20
 400 103 400 103 400 160 c 1,21,-1
 480 160 l 1,22,23
 480 73 480 73 427 31.5 c 128,-1,24
 374 -10 374 -10 280 -10 c 0,25,0
 190 -10 190 -10 135 45 c 128,-1,1
EndSplineSet
EndChar

StartChar: Ccedilla
Encoding: 199 199 12
Width: 560
GlyphClass: 2
Flags: W
AnchorPoint: "Anchor-3" 280 760 basechar 0
AnchorPoint: "Anchor-2" 280 -200 basechar 0
LayerCount: 2
Fore
SplineSet
371.5 81.5 m 128,-1,1
 400 103 400 103 400 160 c 1,2,-1
 480 160 l 1,3,4
 480 86 480 86 440.5 44.5 c 128,-1,5
 401 3 401 3 330 -7 c 1,6,-1
 300 -60 l 1,7,8
 350 -69 350 -69 385 -87 c 128,-1,9
 420 -105 420 -105 420 -130 c 0,10,11
 420 -164 420 -164 350 -181.5 c 128,-1,12
 280 -199 280 -199 180 -200 c 1,13,-1
 180 -160 l 1,14,15
 247 -159 247 -159 293.5 -152 c 128,-1,16
 340 -145 340 -145 340 -130 c 256,17,18
 340 -115 340 -115 293.5 -108 c 128,-1,19
 247 -101 247 -101 180 -100 c 1,20,-1
 247 -8 l 1,21,22
 171 3 171 3 125.5 56 c 128,-1,23
 80 109 80 109 80 190 c 2,24,-1
 80 570 l 2,25,26
 80 660 80 660 135 715 c 128,-1,27
 190 770 190 770 280 770 c 0,28,29
 374 770 374 770 427 728.5 c 128,-1,30
 480 687 480 687 480 600 c 1,31,-1
 400 600 l 1,32,33
 400 658 400 658 371.5 679 c 128,-1,34
 343 700 343 700 280 700 c 0,35,36
 160 700 160 700 160 580 c 2,37,-1
 160 180 l 2,38,39
 160 60 160 60 280 60 c 0,40,0
 343 60 343 60 371.5 81.5 c 128,-1,1
EndSplineSet
EndChar

StartChar: D
Encoding: 68 68 13
Width: 600
GlyphClass: 1
Flags: W
LayerCount: 2
Fore
SplineSet
120 760 m 1,0,-1
 320 760 l 2,1,2
 410 760 410 760 465 705 c 128,-1,3
 520 650 520 650 520 560 c 2,4,-1
 520 200 l 2,5,6
 520 110 520 110 465 55 c 128,-1,7
 410 0 410 0 320 0 c 2,8,-1
 120 0 l 1,9,-1
 120 760 l 1,0,-1
440 190 m 2,11,-1
 440 570 l 2,12,13
 440 690 440 690 320 690 c 2,14,-1
 200 690 l 1,15,-1
 200 70 l 1,16,-1
 320 70 l 2,17,10
 440 70 440 70 440 190 c 2,11,-1
EndSplineSet
EndChar

StartChar: Eth
Encoding: 208 208 14
Width: 640
GlyphClass: 1
Flags: W
LayerCount: 2
Fore
SplineSet
505 705 m 128,-1,1
 560 650 560 650 560 560 c 2,2,-1
 560 200 l 2,3,4
 560 110 560 110 505 55 c 128,-1,5
 450 0 450 0 360 0 c 2,6,-1
 160 0 l 1,7,-1
 160 340 l 1,8,-1
 80 340 l 1,9,-1
 80 420 l 1,10,-1
 160 420 l 1,11,-1
 160 760 l 1,12,-1
 360 760 l 2,13,0
 450 760 450 760 505 705 c 128,-1,1
480 570 m 2,14,15
 480 690 480 690 360 690 c 2,16,-1
 240 690 l 1,17,-1
 240 420 l 1,18,-1
 320 420 l 1,19,-1
 320 340 l 1,20,-1
 240 340 l 1,21,-1
 240 70 l 1,22,-1
 360 70 l 2,23,24
 480 70 480 70 480 190 c 2,25,-1
 480 570 l 2,14,15
EndSplineSet
EndChar

StartChar: E
Encoding: 69 69 15
Width: 560
GlyphClass: 2
Flags: W
AnchorPoint: "Anchor-3" 280 760 basechar 0
AnchorPoint: "Anchor-2" 280 0 basechar 0
LayerCount: 2
Fore
SplineSet
80 0 m 1,0,-1
 80 760 l 1,1,-1
 480 760 l 1,2,-1
 480 690 l 1,3,-1
 160 690 l 1,4,-1
 160 420 l 1,5,-1
 440 420 l 1,6,-1
 440 350 l 1,7,-1
 160 350 l 1,8,-1
 160 70 l 1,9,-1
 480 70 l 1,10,-1
 480 0 l 1,11,-1
 80 0 l 1,0,-1
EndSplineSet
EndChar

StartChar: F
Encoding: 70 70 20
Width: 560
GlyphClass: 1
Flags: W
LayerCount: 2
Fore
SplineSet
80 0 m 1,0,-1
 160 0 l 1,1,-1
 160 350 l 1,2,-1
 440 350 l 1,3,-1
 440 420 l 1,4,-1
 160 420 l 1,5,-1
 160 690 l 1,6,-1
 480 690 l 1,7,-1
 480 760 l 1,8,-1
 80 760 l 1,9,-1
 80 0 l 1,0,-1
EndSplineSet
EndChar

StartChar: G
Encoding: 71 71 21
Width: 560
GlyphClass: 1
Flags: W
LayerCount: 2
Fore
SplineSet
135 45 m 128,-1,1
 80 100 80 100 80 190 c 2,2,-1
 80 570 l 2,3,4
 80 660 80 660 135 715 c 128,-1,5
 190 770 190 770 280 770 c 0,6,7
 374 770 374 770 427 728.5 c 128,-1,8
 480 687 480 687 480 600 c 1,9,-1
 400 600 l 1,10,11
 400 658 400 658 371.5 679 c 128,-1,12
 343 700 343 700 280 700 c 0,13,14
 160 700 160 700 160 580 c 2,15,-1
 160 180 l 2,16,17
 160 60 160 60 280 60 c 256,18,19
 400 60 400 60 400 180 c 2,20,-1
 400 350 l 1,21,-1
 280 350 l 1,22,-1
 280 420 l 1,23,-1
 480 420 l 1,24,-1
 480 190 l 2,25,26
 480 100 480 100 425 45 c 128,-1,27
 370 -10 370 -10 280 -10 c 256,28,0
 190 -10 190 -10 135 45 c 128,-1,1
EndSplineSet
EndChar

StartChar: H
Encoding: 72 72 22
Width: 560
GlyphClass: 1
Flags: W
LayerCount: 2
Fore
SplineSet
80 0 m 1,0,-1
 160 0 l 1,1,-1
 160 350 l 1,2,-1
 400 350 l 1,3,-1
 400 0 l 1,4,-1
 480 0 l 1,5,-1
 480 760 l 1,6,-1
 400 760 l 1,7,-1
 400 420 l 1,8,-1
 160 420 l 1,9,-1
 160 760 l 1,10,-1
 80 760 l 1,11,-1
 80 0 l 1,0,-1
EndSplineSet
EndChar

StartChar: I
Encoding: 73 73 23
Width: 560
GlyphClass: 2
Flags: W
AnchorPoint: "Anchor-3" 280 760 basechar 0
AnchorPoint: "Anchor-2" 280 0 basechar 0
LayerCount: 2
Fore
SplineSet
80 760 m 1,0,-1
 80 690 l 1,1,-1
 240 690 l 1,2,-1
 240 70 l 1,3,-1
 80 70 l 1,4,-1
 80 0 l 1,5,-1
 480 0 l 1,6,-1
 480 70 l 1,7,-1
 320 70 l 1,8,-1
 320 690 l 1,9,-1
 480 690 l 1,10,-1
 480 760 l 1,11,-1
 80 760 l 1,0,-1
EndSplineSet
EndChar

StartChar: J
Encoding: 74 74 28
Width: 560
GlyphClass: 1
Flags: W
LayerCount: 2
Fore
SplineSet
133 31.5 m 128,-1,1
 80 73 80 73 80 160 c 1,2,-1
 160 160 l 1,3,4
 160 103 160 103 188.5 81.5 c 128,-1,5
 217 60 217 60 280 60 c 0,6,7
 400 60 400 60 400 180 c 2,8,-1
 400 690 l 1,9,-1
 200 690 l 1,10,-1
 200 760 l 1,11,-1
 480 760 l 1,12,-1
 480 190 l 2,13,14
 480 100 480 100 425 45 c 128,-1,15
 370 -10 370 -10 280 -10 c 0,16,0
 186 -10 186 -10 133 31.5 c 128,-1,1
EndSplineSet
EndChar

StartChar: K
Encoding: 75 75 29
Width: 560
GlyphClass: 1
Flags: W
LayerCount: 2
Fore
SplineSet
80 760 m 1,0,-1
 160 760 l 1,1,-1
 160 420 l 1,2,3
 179 420 179 420 228.5 489 c 128,-1,4
 278 558 278 558 319 640 c 128,-1,5
 360 722 360 722 360 760 c 1,6,-1
 440 760 l 1,7,8
 440 701 440 701 393.5 596 c 128,-1,9
 347 491 347 491 280 380 c 1,10,11
 364 269 364 269 422 164 c 128,-1,12
 480 59 480 59 480 0 c 1,13,-1
 400 0 l 1,14,15
 400 30 400 30 342 129 c 128,-1,16
 284 228 284 228 200 350 c 1,17,-1
 160 340 l 1,18,-1
 160 0 l 1,19,-1
 80 0 l 1,20,-1
 80 760 l 1,0,-1
EndSplineSet
EndChar

StartChar: L
Encoding: 76 76 30
Width: 560
GlyphClass: 1
Flags: W
LayerCount: 2
Fore
SplineSet
80 0 m 1,0,-1
 80 760 l 1,1,-1
 160 760 l 1,2,-1
 160 70 l 1,3,-1
 480 70 l 1,4,-1
 480 0 l 1,5,-1
 80 0 l 1,0,-1
EndSplineSet
EndChar

StartChar: M
Encoding: 77 77 31
Width: 640
GlyphClass: 1
Flags: W
LayerCount: 2
Fore
SplineSet
80 0 m 1,0,-1
 80 760 l 1,1,-1
 160 760 l 1,2,-1
 320 410 l 1,3,-1
 480 760 l 1,4,-1
 560 760 l 1,5,-1
 560 0 l 1,6,-1
 480 0 l 1,7,-1
 480 560 l 1,8,-1
 320 240 l 1,9,-1
 160 560 l 1,10,-1
 160 0 l 1,11,-1
 80 0 l 1,0,-1
EndSplineSet
EndChar

StartChar: N
Encoding: 78 78 32
Width: 640
GlyphClass: 2
Flags: W
AnchorPoint: "Anchor-3" 320 760 basechar 0
AnchorPoint: "Anchor-2" 320 0 basechar 0
LayerCount: 2
Fore
SplineSet
560 760 m 1,0,-1
 480 760 l 1,1,-1
 560 760 l 1,0,-1
80 760 m 1,2,-1
 160 760 l 2,3,4
 191 760 191 760 241 655 c 128,-1,5
 291 550 291 550 368 358 c 0,6,7
 417 235 417 235 443 177.5 c 128,-1,8
 469 120 469 120 480 120 c 1,9,-1
 480 760 l 1,10,-1
 560 760 l 1,11,-1
 560 0 l 1,12,-1
 480 0 l 2,13,14
 449 0 449 0 399 105 c 128,-1,15
 349 210 349 210 272 402 c 0,16,17
 223 525 223 525 197 582.5 c 128,-1,18
 171 640 171 640 160 640 c 1,19,-1
 160 0 l 1,20,-1
 80 0 l 1,21,-1
 80 760 l 1,2,-1
EndSplineSet
EndChar

StartChar: O
Encoding: 79 79 34
Width: 560
GlyphClass: 2
Flags: W
AnchorPoint: "Anchor-3" 280 760 basechar 0
AnchorPoint: "Anchor-2" 280 0 basechar 0
LayerCount: 2
Fore
SplineSet
425 715 m 128,-1,1
 480 660 480 660 480 570 c 2,2,-1
 480 190 l 2,3,4
 480 100 480 100 425 45 c 128,-1,5
 370 -10 370 -10 280 -10 c 256,6,7
 190 -10 190 -10 135 45 c 128,-1,8
 80 100 80 100 80 190 c 2,9,-1
 80 570 l 2,10,11
 80 660 80 660 135 715 c 128,-1,12
 190 770 190 770 280 770 c 256,13,0
 370 770 370 770 425 715 c 128,-1,1
280 700 m 256,15,16
 160 700 160 700 160 580 c 2,17,-1
 160 180 l 2,18,19
 160 60 160 60 280 60 c 256,20,21
 400 60 400 60 400 180 c 2,22,-1
 400 580 l 2,23,14
 400 700 400 700 280 700 c 256,15,16
EndSplineSet
EndChar

StartChar: Oslash
Encoding: 216 216 39
Width: 560
GlyphClass: 2
Flags: W
AnchorPoint: "Anchor-3" 280 760 basechar 0
AnchorPoint: "Anchor-2" 280 0 basechar 0
LayerCount: 2
Fore
SplineSet
449 686 m 1,0,1
 480 636 480 636 480 570 c 2,2,-1
 480 190 l 2,3,4
 480 100 480 100 425 45 c 128,-1,5
 370 -10 370 -10 280 -10 c 0,6,7
 215 -10 215 -10 168 19 c 1,8,-1
 160 0 l 1,9,-1
 80 0 l 1,10,-1
 111 74 l 1,11,12
 80 124 80 124 80 190 c 2,13,-1
 80 570 l 2,14,15
 80 660 80 660 135 715 c 128,-1,16
 190 770 190 770 280 770 c 0,17,18
 345 770 345 770 392 741 c 1,19,-1
 400 760 l 1,20,-1
 480 760 l 1,21,-1
 449 686 l 1,0,1
364 675 m 1,22,23
 335 700 335 700 280 700 c 0,24,25
 160 700 160 700 160 580 c 2,26,-1
 160 190 l 1,27,-1
 364 675 l 1,22,23
196 85 m 1,28,29
 225 60 225 60 280 60 c 0,30,31
 400 60 400 60 400 180 c 2,32,-1
 400 570 l 1,33,-1
 196 85 l 1,28,29
EndSplineSet
EndChar

StartChar: OE
Encoding: 338 338 41
Width: 880
GlyphClass: 2
Flags: W
AnchorPoint: "Anchor-3" 600 760 basechar 0
AnchorPoint: "Anchor-2" 600 0 basechar 0
LayerCount: 2
Fore
SplineSet
480 690 m 1,0,-1
 480 420 l 1,1,-1
 760 420 l 1,2,-1
 760 350 l 1,3,-1
 480 350 l 1,4,-1
 480 70 l 1,5,-1
 800 70 l 1,6,-1
 800 0 l 1,7,-1
 400 0 l 1,8,-1
 400 90 l 1,9,10
 381 52 381 52 345.5 21 c 128,-1,11
 310 -10 310 -10 260 -10 c 0,12,13
 174 -11 174 -11 127 43.5 c 128,-1,14
 80 98 80 98 80 190 c 2,15,-1
 80 570 l 2,16,17
 80 662 80 662 127 716.5 c 128,-1,18
 174 771 174 771 260 770 c 0,19,20
 310 770 310 770 345.5 739 c 128,-1,21
 381 708 381 708 400 670 c 1,22,-1
 400 760 l 1,23,-1
 800 760 l 1,24,-1
 800 690 l 1,25,-1
 480 690 l 1,0,-1
344.5 95 m 128,-1,27
 380 130 380 130 400 173 c 1,28,-1
 400 587 l 1,29,30
 380 630 380 630 344.5 665 c 128,-1,31
 309 700 309 700 260 700 c 0,32,33
 205 700 205 700 182.5 671.5 c 128,-1,34
 160 643 160 643 160 580 c 2,35,-1
 160 180 l 2,36,37
 160 117 160 117 182.5 88.5 c 128,-1,38
 205 60 205 60 260 60 c 0,39,26
 309 60 309 60 344.5 95 c 128,-1,27
EndSplineSet
EndChar

StartChar: P
Encoding: 80 80 42
Width: 560
GlyphClass: 1
Flags: W
LayerCount: 2
Fore
SplineSet
80 760 m 1,0,-1
 280 760 l 2,1,2
 370 760 370 760 425 705 c 128,-1,3
 480 650 480 650 480 560 c 256,4,5
 480 470 480 470 425 415 c 128,-1,6
 370 360 370 360 280 360 c 2,7,-1
 160 360 l 1,8,-1
 160 0 l 1,9,-1
 80 0 l 1,10,-1
 80 760 l 1,0,-1
369.5 464.5 m 128,-1,12
 400 499 400 499 400 560 c 256,13,14
 400 621 400 621 369.5 655.5 c 128,-1,15
 339 690 339 690 280 690 c 2,16,-1
 160 690 l 1,17,-1
 160 430 l 1,18,-1
 280 430 l 2,19,11
 339 430 339 430 369.5 464.5 c 128,-1,12
EndSplineSet
EndChar

StartChar: Thorn
Encoding: 222 222 43
Width: 640
GlyphClass: 1
Flags: W
LayerCount: 2
Fore
SplineSet
505 525 m 128,-1,1
 560 470 560 470 560 380 c 256,2,3
 560 290 560 290 505 235 c 128,-1,4
 450 180 450 180 360 180 c 2,5,-1
 160 180 l 1,6,-1
 160 0 l 1,7,-1
 80 0 l 1,8,-1
 80 760 l 1,9,-1
 160 760 l 1,10,-1
 160 580 l 1,11,-1
 360 580 l 2,12,0
 450 580 450 580 505 525 c 128,-1,1
490 380 m 256,14,15
 490 500 490 500 370 500 c 2,16,-1
 160 500 l 1,17,-1
 160 260 l 1,18,-1
 370 260 l 2,19,13
 490 260 490 260 490 380 c 256,14,15
EndSplineSet
EndChar

StartChar: Q
Encoding: 81 81 44
Width: 560
GlyphClass: 1
Flags: W
LayerCount: 2
Fore
SplineSet
337.5 -62.5 m 128,-1,1
 355 -80 355 -80 400 -80 c 1,2,-1
 400 -150 l 1,3,4
 338 -150 338 -150 304 -137.5 c 128,-1,5
 270 -125 270 -125 255 -92.5 c 128,-1,6
 240 -60 240 -60 240 0 c 1,7,8
 153 0 153 0 116.5 48 c 128,-1,9
 80 96 80 96 80 190 c 2,10,-1
 80 570 l 2,11,12
 80 660 80 660 135 715 c 128,-1,13
 190 770 190 770 280 770 c 256,14,15
 370 770 370 770 425 715 c 128,-1,16
 480 660 480 660 480 570 c 2,17,-1
 480 190 l 2,18,19
 480 96 480 96 443.5 48 c 128,-1,20
 407 0 407 0 320 0 c 1,21,0
 320 -45 320 -45 337.5 -62.5 c 128,-1,1
400 180 m 2,23,-1
 400 580 l 2,24,25
 400 700 400 700 280 700 c 256,26,27
 160 700 160 700 160 580 c 2,28,-1
 160 180 l 2,29,30
 160 60 160 60 280 60 c 256,31,22
 400 60 400 60 400 180 c 2,23,-1
EndSplineSet
EndChar

StartChar: R
Encoding: 82 82 45
Width: 560
GlyphClass: 1
Flags: W
LayerCount: 2
Fore
SplineSet
80 760 m 1,0,-1
 280 760 l 2,1,2
 370 760 370 760 425 705 c 128,-1,3
 480 650 480 650 480 560 c 0,4,5
 480 501 480 501 456.5 460 c 128,-1,6
 433 419 433 419 400 400 c 1,7,8
 433 296 433 296 456.5 187.5 c 128,-1,9
 480 79 480 79 480 0 c 1,10,-1
 400 0 l 1,11,12
 400 79 400 79 376.5 176 c 128,-1,13
 353 273 353 273 320 360 c 1,14,-1
 160 360 l 1,15,-1
 160 0 l 1,16,-1
 80 0 l 1,17,-1
 80 760 l 1,0,-1
369.5 464.5 m 128,-1,19
 400 499 400 499 400 560 c 256,20,21
 400 621 400 621 369.5 655.5 c 128,-1,22
 339 690 339 690 280 690 c 2,23,-1
 160 690 l 1,24,-1
 160 430 l 1,25,-1
 280 430 l 2,26,18
 339 430 339 430 369.5 464.5 c 128,-1,19
EndSplineSet
EndChar

StartChar: S
Encoding: 83 83 46
Width: 560
GlyphClass: 1
Flags: W
LayerCount: 2
Fore
SplineSet
175.5 17.5 m 128,-1,1
 130 45 130 45 105 92.5 c 128,-1,2
 80 140 80 140 80 200 c 1,3,-1
 160 200 l 1,4,5
 160 138 160 138 191 99 c 128,-1,6
 222 60 222 60 280 60 c 256,7,8
 338 60 338 60 369 99 c 128,-1,9
 400 138 400 138 400 200 c 0,10,11
 400 252 400 252 365 283.5 c 128,-1,12
 330 315 330 315 280 340 c 0,13,14
 222 369 222 369 181.5 395 c 128,-1,15
 141 421 141 421 110.5 463 c 128,-1,16
 80 505 80 505 80 560 c 0,17,18
 80 620 80 620 105 667.5 c 128,-1,19
 130 715 130 715 175.5 742.5 c 128,-1,20
 221 770 221 770 280 770 c 256,21,22
 339 770 339 770 384.5 742.5 c 128,-1,23
 430 715 430 715 455 667.5 c 128,-1,24
 480 620 480 620 480 560 c 1,25,-1
 400 560 l 1,26,27
 400 623 400 623 369 661.5 c 128,-1,28
 338 700 338 700 280 700 c 256,29,30
 222 700 222 700 191 661.5 c 128,-1,31
 160 623 160 623 160 560 c 0,32,33
 160 508 160 508 195 476.5 c 128,-1,34
 230 445 230 445 280 420 c 0,35,36
 364 378 364 378 422 325.5 c 128,-1,37
 480 273 480 273 480 200 c 0,38,39
 480 140 480 140 455 92 c 128,-1,40
 430 44 430 44 384.5 17 c 128,-1,41
 339 -10 339 -10 280 -10 c 256,42,0
 221 -10 221 -10 175.5 17.5 c 128,-1,1
EndSplineSet
EndChar

StartChar: uni1E9E
Encoding: 7838 7838 47
Width: 580
GlyphClass: 1
Flags: W
LayerCount: 2
Fore
SplineSet
100 760 m 1,0,-1
 300 760 l 2,1,2
 390 760 390 760 440 710 c 128,-1,3
 490 660 490 660 490 570 c 0,4,5
 490 507 490 507 477 468 c 128,-1,6
 464 429 464 429 431.5 409.5 c 128,-1,7
 399 390 399 390 340 390 c 1,8,9
 427 390 427 390 463.5 342.5 c 128,-1,10
 500 295 500 295 500 200 c 0,11,12
 500 110 500 110 445 55 c 128,-1,13
 390 0 390 0 300 0 c 1,14,-1
 300 70 l 1,15,16
 359 70 359 70 389.5 104.5 c 128,-1,17
 420 139 420 139 420 200 c 0,18,19
 420 240 420 240 401.5 274.5 c 128,-1,20
 383 309 383 309 351 329.5 c 128,-1,21
 319 350 319 350 280 350 c 2,22,-1
 180 350 l 1,23,-1
 180 0 l 1,24,-1
 100 0 l 1,25,-1
 100 760 l 1,0,-1
374 464 m 128,-1,27
 410 508 410 508 410 570 c 0,28,29
 410 631 410 631 384.5 660.5 c 128,-1,30
 359 690 359 690 300 690 c 2,31,-1
 180 690 l 1,32,-1
 180 420 l 1,33,-1
 280 420 l 2,34,26
 338 420 338 420 374 464 c 128,-1,27
EndSplineSet
EndChar

StartChar: T
Encoding: 84 84 48
Width: 560
GlyphClass: 1
Flags: W
LayerCount: 2
Fore
SplineSet
80 760 m 1,0,-1
 80 690 l 1,1,-1
 240 690 l 1,2,-1
 240 0 l 1,3,-1
 320 0 l 1,4,-1
 320 690 l 1,5,-1
 480 690 l 1,6,-1
 480 760 l 1,7,-1
 80 760 l 1,0,-1
EndSplineSet
EndChar

StartChar: U
Encoding: 85 85 49
Width: 560
GlyphClass: 2
Flags: W
AnchorPoint: "Anchor-3" 280 760 basechar 0
AnchorPoint: "Anchor-2" 280 0 basechar 0
LayerCount: 2
Fore
SplineSet
400 760 m 1,0,-1
 400 180 l 2,1,2
 400 60 400 60 280 60 c 256,3,4
 160 60 160 60 160 180 c 2,5,-1
 160 760 l 1,6,-1
 80 760 l 1,7,-1
 80 190 l 2,8,9
 80 100 80 100 135 45 c 128,-1,10
 190 -10 190 -10 280 -10 c 256,11,12
 370 -10 370 -10 425 45 c 128,-1,13
 480 100 480 100 480 190 c 2,14,-1
 480 760 l 1,15,-1
 400 760 l 1,0,-1
EndSplineSet
EndChar

StartChar: V
Encoding: 86 86 54
Width: 640
GlyphClass: 1
Flags: W
LayerCount: 2
Fore
SplineSet
138 450 m 128,-1,1
 80 662 80 662 80 760 c 1,2,-1
 160 760 l 1,3,4
 160 662 160 662 206.5 485 c 128,-1,5
 253 308 253 308 320 120 c 1,6,7
 387 308 387 308 433.5 485 c 128,-1,8
 480 662 480 662 480 760 c 1,9,-1
 560 760 l 1,10,11
 560 662 560 662 502 450 c 128,-1,12
 444 238 444 238 360 0 c 1,13,-1
 280 0 l 1,14,0
 196 238 196 238 138 450 c 128,-1,1
EndSplineSet
EndChar

StartChar: W
Encoding: 87 87 55
Width: 880
GlyphClass: 2
Flags: W
AnchorPoint: "Anchor-3" 440 760 basechar 0
AnchorPoint: "Anchor-2" 440 0 basechar 0
LayerCount: 2
Fore
SplineSet
126.5 450 m 128,-1,1
 80 662 80 662 80 760 c 1,2,-1
 160 760 l 1,3,4
 160 662 160 662 195 485 c 128,-1,5
 230 308 230 308 280 120 c 1,6,7
 330 308 330 308 365 485 c 128,-1,8
 400 662 400 662 400 760 c 1,9,-1
 480 760 l 1,10,11
 480 662 480 662 515 485 c 128,-1,12
 550 308 550 308 600 120 c 1,13,14
 650 308 650 308 685 485 c 128,-1,15
 720 662 720 662 720 760 c 1,16,-1
 800 760 l 1,17,18
 800 662 800 662 753.5 450 c 128,-1,19
 707 238 707 238 640 0 c 1,20,-1
 560 0 l 1,21,22
 510 179 510 179 475 340 c 128,-1,23
 440 501 440 501 440 580 c 1,24,25
 440 501 440 501 405 340 c 128,-1,26
 370 179 370 179 320 0 c 1,27,-1
 240 0 l 1,28,0
 173 238 173 238 126.5 450 c 128,-1,1
EndSplineSet
EndChar

StartChar: X
Encoding: 88 88 60
Width: 560
GlyphClass: 1
Flags: W
LayerCount: 2
Fore
SplineSet
120.5 184.5 m 128,-1,1
 161 290 161 290 220 390 c 1,2,3
 161 481 161 481 120.5 581 c 128,-1,4
 80 681 80 681 80 760 c 1,5,-1
 160 760 l 1,6,7
 160 681 160 681 195 598.5 c 128,-1,8
 230 516 230 516 280 450 c 1,9,10
 330 516 330 516 365 598.5 c 128,-1,11
 400 681 400 681 400 760 c 1,12,-1
 480 760 l 1,13,14
 480 681 480 681 439.5 581 c 128,-1,15
 399 481 399 481 340 390 c 1,16,17
 399 290 399 290 439.5 184.5 c 128,-1,18
 480 79 480 79 480 0 c 1,19,-1
 400 0 l 1,20,21
 400 79 400 79 365 167.5 c 128,-1,22
 330 256 330 256 280 330 c 1,23,24
 230 256 230 256 195 167.5 c 128,-1,25
 160 79 160 79 160 0 c 1,26,-1
 80 0 l 1,27,0
 80 79 80 79 120.5 184.5 c 128,-1,1
EndSplineSet
EndChar

StartChar: Y
Encoding: 89 89 61
Width: 560
GlyphClass: 2
Flags: W
AnchorPoint: "Anchor-3" 280 760 basechar 0
AnchorPoint: "Anchor-2" 280 0 basechar 0
LayerCount: 2
Fore
SplineSet
126.5 581 m 128,-1,1
 80 681 80 681 80 760 c 1,2,-1
 160 760 l 1,3,4
 160 681 160 681 195 598.5 c 128,-1,5
 230 516 230 516 280 450 c 1,6,7
 330 516 330 516 365 598.5 c 128,-1,8
 400 681 400 681 400 760 c 1,9,-1
 480 760 l 1,10,11
 480 681 480 681 433.5 581 c 128,-1,12
 387 481 387 481 320 390 c 1,13,-1
 320 0 l 1,14,-1
 240 0 l 1,15,-1
 240 390 l 1,16,0
 173 481 173 481 126.5 581 c 128,-1,1
EndSplineSet
EndChar

StartChar: Z
Encoding: 90 90 66
Width: 560
GlyphClass: 1
Flags: W
LayerCount: 2
Fore
SplineSet
117.5 194 m 128,-1,1
 155 265 155 265 230 380 c 256,2,3
 305 495 305 495 342.5 566 c 128,-1,4
 380 637 380 637 380 690 c 1,5,-1
 80 690 l 1,6,-1
 80 760 l 1,7,-1
 480 760 l 1,8,-1
 480 690 l 2,9,10
 480 637 480 637 442.5 566 c 128,-1,11
 405 495 405 495 330 380 c 256,12,13
 255 265 255 265 217.5 194 c 128,-1,14
 180 123 180 123 180 70 c 1,15,-1
 480 70 l 1,16,-1
 480 0 l 1,17,-1
 80 0 l 1,18,-1
 80 70 l 2,19,0
 80 123 80 123 117.5 194 c 128,-1,1
EndSplineSet
EndChar

StartChar: a
Encoding: 97 97 67
Width: 580
GlyphClass: 2
Flags: W
AnchorPoint: "Anchor-3" 280 560 basechar 0
AnchorPoint: "Anchor-2" 280 0 basechar 0
LayerCount: 2
Fore
SplineSet
434 516.5 m 128,-1,1
 480 463 480 463 480 370 c 2,2,-1
 480 0 l 1,3,-1
 400 0 l 1,4,-1
 400 80 l 1,5,6
 400 61 400 61 375 40 c 128,-1,7
 350 19 350 19 316 4.5 c 128,-1,8
 282 -10 282 -10 260 -10 c 0,9,10
 171 -10 171 -10 125.5 39.5 c 128,-1,11
 80 89 80 89 80 180 c 0,12,13
 80 210 80 210 101 242.5 c 128,-1,14
 122 275 122 275 163 297.5 c 128,-1,15
 204 320 204 320 260 320 c 2,16,-1
 400 320 l 1,17,-1
 400 380 l 2,18,19
 400 443 400 443 379 471.5 c 128,-1,20
 358 500 358 500 300 500 c 0,21,22
 243 500 243 500 211.5 482 c 128,-1,23
 180 464 180 464 180 440 c 1,24,-1
 100 440 l 1,25,26
 100 475 100 475 125 505 c 128,-1,27
 150 535 150 535 196 552.5 c 128,-1,28
 242 570 242 570 300 570 c 0,29,0
 388 570 388 570 434 516.5 c 128,-1,1
201.5 242.5 m 128,-1,31
 179 225 179 225 169.5 204 c 128,-1,32
 160 183 160 183 160 170 c 0,33,34
 160 108 160 108 180.5 84 c 128,-1,35
 201 60 201 60 260 60 c 0,36,37
 297 60 297 60 329.5 80.5 c 128,-1,38
 362 101 362 101 381 130 c 128,-1,39
 400 159 400 159 400 180 c 2,40,-1
 400 260 l 1,41,-1
 260 260 l 2,42,30
 224 260 224 260 201.5 242.5 c 128,-1,31
EndSplineSet
EndChar

StartChar: ae
Encoding: 230 230 74
Width: 859
GlyphClass: 2
Flags: W
AnchorPoint: "Anchor-3" 579 562 basechar 0
AnchorPoint: "Anchor-2" 579 2 basechar 0
LayerCount: 2
Fore
SplineSet
460 252 m 1,0,-1
 460 161 l 1,1,2
 470 62 470 62 579 62 c 0,3,4
 636 62 636 62 667.5 80 c 128,-1,5
 699 98 699 98 699 122 c 1,6,-1
 779 122 l 1,7,8
 779 87 779 87 754 57 c 128,-1,9
 729 27 729 27 683 9.5 c 128,-1,10
 637 -8 637 -8 579 -8 c 0,11,12
 523 -8 523 -8 479 14.5 c 128,-1,13
 435 37 435 37 410 78 c 1,14,15
 407 65 407 65 381.5 43.5 c 128,-1,16
 356 22 356 22 318.5 6 c 128,-1,17
 281 -10 281 -10 240 -10 c 0,18,19
 151 -10 151 -10 105.5 39.5 c 128,-1,20
 60 89 60 89 60 180 c 0,21,22
 60 210 60 210 81 242.5 c 128,-1,23
 102 275 102 275 143 297.5 c 128,-1,24
 184 320 184 320 240 320 c 2,25,-1
 379 320 l 1,26,-1
 379 372 l 2,27,28
 379 386 379 386 380 393 c 0,29,30
 378 449 378 449 356.5 474.5 c 128,-1,31
 335 500 335 500 280 500 c 0,32,33
 223 500 223 500 191.5 482 c 128,-1,34
 160 464 160 464 160 440 c 1,35,-1
 80 440 l 1,36,37
 80 475 80 475 105 505 c 128,-1,38
 130 535 130 535 176 552.5 c 128,-1,39
 222 570 222 570 280 570 c 0,40,41
 375 570 375 570 423 505 c 1,42,43
 450 537 450 537 490 554.5 c 128,-1,44
 530 572 530 572 579 572 c 0,45,46
 669 572 669 572 724 517 c 128,-1,47
 779 462 779 462 779 372 c 2,48,-1
 779 252 l 1,49,-1
 460 252 l 1,0,-1
459 393 m 0,51,52
 460 385 460 385 460 370 c 2,53,-1
 460 322 l 1,54,-1
 699 322 l 1,55,-1
 699 382 l 2,56,57
 699 502 699 502 579 502 c 0,58,50
 465 502 465 502 459 393 c 0,51,52
306 79 m 128,-1,60
 337 98 337 98 357 125 c 128,-1,61
 377 152 377 152 380 174 c 0,62,63
 379 180 379 180 379 192 c 2,64,-1
 379 250 l 1,65,-1
 240 250 l 2,66,67
 204 250 204 250 181.5 235 c 128,-1,68
 159 220 159 220 149.5 201 c 128,-1,69
 140 182 140 182 140 170 c 0,70,71
 140 108 140 108 160.5 84 c 128,-1,72
 181 60 181 60 240 60 c 0,73,59
 275 60 275 60 306 79 c 128,-1,60
EndSplineSet
EndChar

StartChar: b
Encoding: 98 98 75
Width: 560
GlyphClass: 1
Flags: W
LayerCount: 2
Fore
SplineSet
425 45 m 128,-1,1
 480 100 480 100 480 190 c 2,2,-1
 480 370 l 2,3,4
 480 460 480 460 425 515 c 128,-1,5
 370 570 370 570 280 570 c 0,6,7
 260 570 260 570 231.5 561.5 c 128,-1,8
 203 553 203 553 181.5 541.5 c 128,-1,9
 160 530 160 530 160 520 c 1,10,-1
 160 720 l 1,11,-1
 80 720 l 1,12,-1
 80 0 l 1,13,-1
 160 0 l 1,14,-1
 160 40 l 1,15,16
 160 30 160 30 181.5 18.5 c 128,-1,17
 203 7 203 7 231.5 -1.5 c 128,-1,18
 260 -10 260 -10 280 -10 c 0,19,0
 370 -10 370 -10 425 45 c 128,-1,1
160 180 m 2,21,-1
 160 380 l 2,22,23
 160 500 160 500 280 500 c 256,24,25
 400 500 400 500 400 380 c 2,26,-1
 400 180 l 2,27,28
 400 60 400 60 280 60 c 256,29,20
 160 60 160 60 160 180 c 2,21,-1
EndSplineSet
EndChar

StartChar: c
Encoding: 99 99 76
Width: 560
GlyphClass: 2
Flags: W
AnchorPoint: "Anchor-3" 280 560 basechar 0
AnchorPoint: "Anchor-2" 280 0 basechar 0
LayerCount: 2
Fore
SplineSet
427 31.5 m 128,-1,1
 374 -10 374 -10 280 -10 c 0,2,3
 190 -10 190 -10 135 45 c 128,-1,4
 80 100 80 100 80 190 c 2,5,-1
 80 370 l 2,6,7
 80 460 80 460 135 515 c 128,-1,8
 190 570 190 570 280 570 c 0,9,10
 374 570 374 570 427 528.5 c 128,-1,11
 480 487 480 487 480 400 c 1,12,-1
 400 400 l 1,13,14
 400 458 400 458 371.5 479 c 128,-1,15
 343 500 343 500 280 500 c 0,16,17
 160 500 160 500 160 380 c 2,18,-1
 160 180 l 2,19,20
 160 60 160 60 280 60 c 0,21,22
 343 60 343 60 371.5 81.5 c 128,-1,23
 400 103 400 103 400 160 c 1,24,-1
 480 160 l 1,25,0
 480 73 480 73 427 31.5 c 128,-1,1
EndSplineSet
EndChar

StartChar: ccedilla
Encoding: 231 231 77
Width: 560
GlyphClass: 2
Flags: W
AnchorPoint: "Anchor-3" 280 560 basechar 0
AnchorPoint: "Anchor-2" 280 -200 basechar 0
LayerCount: 2
Fore
SplineSet
371.5 81.5 m 128,-1,1
 400 103 400 103 400 160 c 1,2,-1
 480 160 l 1,3,4
 480 86 480 86 440.5 44.5 c 128,-1,5
 401 3 401 3 330 -7 c 1,6,-1
 300 -60 l 1,7,8
 350 -69 350 -69 385 -87 c 128,-1,9
 420 -105 420 -105 420 -130 c 0,10,11
 420 -164 420 -164 350 -181.5 c 128,-1,12
 280 -199 280 -199 180 -200 c 1,13,-1
 180 -160 l 1,14,15
 247 -159 247 -159 293.5 -152 c 128,-1,16
 340 -145 340 -145 340 -130 c 256,17,18
 340 -115 340 -115 293.5 -108 c 128,-1,19
 247 -101 247 -101 180 -100 c 1,20,-1
 247 -8 l 1,21,22
 171 3 171 3 125.5 56 c 128,-1,23
 80 109 80 109 80 190 c 2,24,-1
 80 370 l 2,25,26
 80 460 80 460 135 515 c 128,-1,27
 190 570 190 570 280 570 c 0,28,29
 374 570 374 570 427 528.5 c 128,-1,30
 480 487 480 487 480 400 c 1,31,-1
 400 400 l 1,32,33
 400 458 400 458 371.5 479 c 128,-1,34
 343 500 343 500 280 500 c 0,35,36
 160 500 160 500 160 380 c 2,37,-1
 160 180 l 2,38,39
 160 60 160 60 280 60 c 0,40,0
 343 60 343 60 371.5 81.5 c 128,-1,1
EndSplineSet
EndChar

StartChar: d
Encoding: 100 100 78
Width: 580
GlyphClass: 1
Flags: W
LayerCount: 2
Fore
SplineSet
480 720 m 1,0,-1
 480 0 l 1,1,-1
 400 0 l 1,2,-1
 400 90 l 1,3,4
 381 52 381 52 345.5 21 c 128,-1,5
 310 -10 310 -10 260 -10 c 0,6,7
 174 -11 174 -11 127 43.5 c 128,-1,8
 80 98 80 98 80 190 c 2,9,-1
 80 370 l 2,10,11
 80 462 80 462 127 516.5 c 128,-1,12
 174 571 174 571 260 570 c 0,13,14
 310 570 310 570 345.5 539 c 128,-1,15
 381 508 381 508 400 470 c 1,16,-1
 400 720 l 1,17,-1
 480 720 l 1,0,-1
344.5 95 m 128,-1,19
 380 130 380 130 400 173 c 1,20,-1
 400 387 l 1,21,22
 380 430 380 430 344.5 465 c 128,-1,23
 309 500 309 500 260 500 c 0,24,25
 205 500 205 500 182.5 471.5 c 128,-1,26
 160 443 160 443 160 380 c 2,27,-1
 160 180 l 2,28,29
 160 117 160 117 182.5 88.5 c 128,-1,30
 205 60 205 60 260 60 c 0,31,18
 309 60 309 60 344.5 95 c 128,-1,19
EndSplineSet
EndChar

StartChar: e
Encoding: 101 101 80
Width: 560
GlyphClass: 2
Flags: W
AnchorPoint: "Anchor-3" 280 560 basechar 0
AnchorPoint: "Anchor-2" 280 0 basechar 0
LayerCount: 2
Fore
SplineSet
135 45 m 128,-1,1
 80 100 80 100 80 190 c 2,2,-1
 80 370 l 2,3,4
 80 460 80 460 135 515 c 128,-1,5
 190 570 190 570 280 570 c 256,6,7
 370 570 370 570 425 515 c 128,-1,8
 480 460 480 460 480 370 c 2,9,-1
 480 250 l 1,10,-1
 160 250 l 1,11,-1
 160 180 l 2,12,13
 160 60 160 60 280 60 c 0,14,15
 337 60 337 60 368.5 78 c 128,-1,16
 400 96 400 96 400 120 c 1,17,-1
 480 120 l 1,18,19
 480 85 480 85 455 55 c 128,-1,20
 430 25 430 25 384 7.5 c 128,-1,21
 338 -10 338 -10 280 -10 c 0,22,0
 190 -10 190 -10 135 45 c 128,-1,1
400 320 m 1,23,-1
 400 380 l 2,24,25
 400 500 400 500 280 500 c 256,26,27
 160 500 160 500 160 380 c 2,28,-1
 160 320 l 1,29,-1
 400 320 l 1,23,-1
EndSplineSet
EndChar

StartChar: f
Encoding: 102 102 85
Width: 560
GlyphClass: 1
Flags: W
LayerCount: 2
Fore
SplineSet
160 440 m 1,0,-1
 80 440 l 1,1,-1
 80 500 l 1,2,-1
 160 500 l 1,3,-1
 160 610 l 2,4,5
 160 671 160 671 175 705.5 c 128,-1,6
 190 740 190 740 224.5 755 c 128,-1,7
 259 770 259 770 320 770 c 0,8,9
 408 770 408 770 444 739.5 c 128,-1,10
 480 709 480 709 480 640 c 1,11,-1
 400 640 l 1,12,13
 400 671 400 671 382 685.5 c 128,-1,14
 364 700 364 700 320 700 c 0,15,16
 275 700 275 700 257.5 682.5 c 128,-1,17
 240 665 240 665 240 620 c 2,18,-1
 240 500 l 1,19,-1
 440 500 l 1,20,-1
 440 440 l 1,21,-1
 240 440 l 1,22,-1
 240 0 l 1,23,-1
 160 0 l 1,24,-1
 160 440 l 1,0,-1
EndSplineSet
EndChar

StartChar: g
Encoding: 103 103 86
Width: 560
GlyphClass: 1
Flags: W
LayerCount: 2
Fore
SplineSet
480 560 m 1,0,-1
 480 -10 l 2,1,2
 480 -100 480 -100 425 -155 c 128,-1,3
 370 -210 370 -210 280 -210 c 0,4,5
 222 -210 222 -210 176 -192.5 c 128,-1,6
 130 -175 130 -175 105 -145 c 128,-1,7
 80 -115 80 -115 80 -80 c 1,8,-1
 160 -80 l 1,9,10
 160 -104 160 -104 191.5 -122 c 128,-1,11
 223 -140 223 -140 280 -140 c 0,12,13
 400 -140 400 -140 400 -20 c 2,14,-1
 400 110 l 1,15,16
 381 72 381 72 345.5 41 c 128,-1,17
 310 10 310 10 260 10 c 0,18,19
 174 9 174 9 127 63.5 c 128,-1,20
 80 118 80 118 80 210 c 2,21,-1
 80 370 l 2,22,23
 80 462 80 462 127 516.5 c 128,-1,24
 174 571 174 571 260 570 c 0,25,26
 310 570 310 570 345.5 539 c 128,-1,27
 381 508 381 508 400 470 c 1,28,-1
 400 560 l 1,29,-1
 480 560 l 1,0,-1
344.5 115 m 128,-1,31
 380 150 380 150 400 193 c 1,32,-1
 400 387 l 1,33,34
 380 430 380 430 344.5 465 c 128,-1,35
 309 500 309 500 260 500 c 0,36,37
 205 500 205 500 182.5 471.5 c 128,-1,38
 160 443 160 443 160 380 c 2,39,-1
 160 200 l 2,40,41
 160 137 160 137 182.5 108.5 c 128,-1,42
 205 80 205 80 260 80 c 0,43,30
 309 80 309 80 344.5 115 c 128,-1,31
EndSplineSet
EndChar

StartChar: h
Encoding: 104 104 87
Width: 560
GlyphClass: 1
Flags: W
LayerCount: 2
Fore
SplineSet
433 516.5 m 128,-1,1
 480 462 480 462 480 370 c 2,2,-1
 480 0 l 1,3,-1
 400 0 l 1,4,-1
 400 380 l 2,5,6
 400 443 400 443 377.5 471.5 c 128,-1,7
 355 500 355 500 300 500 c 0,8,9
 251 500 251 500 215.5 465 c 128,-1,10
 180 430 180 430 160 387 c 1,11,-1
 160 0 l 1,12,-1
 80 0 l 1,13,-1
 80 760 l 1,14,-1
 160 760 l 1,15,-1
 160 470 l 1,16,17
 179 508 179 508 214.5 539 c 128,-1,18
 250 570 250 570 300 570 c 0,19,0
 386 571 386 571 433 516.5 c 128,-1,1
EndSplineSet
EndChar

StartChar: dotlessi
Encoding: 305 305 89
Width: 560
GlyphClass: 2
Flags: W
AnchorPoint: "Anchor-3" 280 560 basechar 0
AnchorPoint: "Anchor-2" 280 0 basechar 0
LayerCount: 2
Fore
SplineSet
80 0 m 1,0,-1
 80 70 l 1,1,-1
 240 70 l 1,2,-1
 240 490 l 1,3,-1
 80 490 l 1,4,-1
 80 560 l 1,5,-1
 320 560 l 1,6,-1
 320 70 l 1,7,-1
 480 70 l 1,8,-1
 480 0 l 1,9,-1
 80 0 l 1,0,-1
EndSplineSet
EndChar

StartChar: j
Encoding: 106 106 94
Width: 490
GlyphClass: 2
Flags: W
AnchorPoint: "Anchor-3" 350 760 basechar 0
LayerCount: 2
Fore
SplineSet
307.5 667.5 m 128,-1,1
 290 685 290 685 290 710 c 256,2,3
 290 735 290 735 307.5 752.5 c 128,-1,4
 325 770 325 770 350 770 c 256,5,6
 375 770 375 770 392.5 752.5 c 128,-1,7
 410 735 410 735 410 710 c 256,8,9
 410 685 410 685 392.5 667.5 c 128,-1,10
 375 650 375 650 350 650 c 256,11,0
 325 650 325 650 307.5 667.5 c 128,-1,1
385 -145.5 m 128,-1,13
 370 -180 370 -180 335.5 -195 c 128,-1,14
 301 -210 301 -210 240 -210 c 0,15,16
 152 -210 152 -210 116 -179.5 c 128,-1,17
 80 -149 80 -149 80 -80 c 1,18,-1
 160 -80 l 1,19,20
 160 -111 160 -111 178 -125.5 c 128,-1,21
 196 -140 196 -140 240 -140 c 0,22,23
 285 -140 285 -140 302.5 -122.5 c 128,-1,24
 320 -105 320 -105 320 -60 c 2,25,-1
 320 490 l 1,26,-1
 160 490 l 1,27,-1
 160 560 l 1,28,-1
 400 560 l 1,29,-1
 400 -50 l 2,30,12
 400 -111 400 -111 385 -145.5 c 128,-1,13
EndSplineSet
EndChar

StartChar: k
Encoding: 107 107 95
Width: 560
GlyphClass: 1
Flags: W
LayerCount: 2
Fore
SplineSet
80 760 m 1,0,-1
 160 760 l 1,1,-1
 160 320 l 1,2,3
 180 320 180 320 230 365 c 128,-1,4
 280 410 280 410 320 466.5 c 128,-1,5
 360 523 360 523 360 560 c 1,6,-1
 440 560 l 1,7,8
 440 501 440 501 393.5 425 c 128,-1,9
 347 349 347 349 280 280 c 1,10,11
 364 211 364 211 422 135 c 128,-1,12
 480 59 480 59 480 0 c 1,13,-1
 400 0 l 1,14,15
 400 30 400 30 342 100 c 128,-1,16
 284 170 284 170 200 250 c 1,17,-1
 160 240 l 1,18,-1
 160 0 l 1,19,-1
 80 0 l 1,20,-1
 80 760 l 1,0,-1
EndSplineSet
EndChar

StartChar: l
Encoding: 108 108 96
Width: 480
GlyphClass: 1
Flags: WO
LayerCount: 2
Fore
SplineSet
100 157 m 1,0,-1
 96 8 l 25,1,-1
 179 9 l 1,2,-1
 180 140 l 17,3,-1
 180 760 l 1,4,-1
 100 760 l 1,5,-1
 100 150 l 1026,6,7
EndSplineSet
EndChar

StartChar: m
Encoding: 109 109 97
Width: 920
GlyphClass: 1
Flags: W
LayerCount: 2
Fore
SplineSet
773 516.5 m 128,-1,1
 820 462 820 462 820 370 c 2,2,-1
 820 0 l 1,3,-1
 740 0 l 1,4,-1
 740 380 l 2,5,6
 740 443 740 443 717.5 471.5 c 128,-1,7
 695 500 695 500 640 500 c 0,8,9
 590 500 590 500 554.5 464.5 c 128,-1,10
 519 429 519 429 500 387 c 1,11,-1
 500 370 l 1,12,-1
 500 0 l 1,13,-1
 420 0 l 1,14,-1
 420 380 l 2,15,16
 420 443 420 443 397.5 471.5 c 128,-1,17
 375 500 375 500 320 500 c 0,18,19
 271 500 271 500 235.5 465 c 128,-1,20
 200 430 200 430 180 387 c 1,21,-1
 180 0 l 1,22,-1
 100 0 l 1,23,-1
 100 560 l 1,24,-1
 180 560 l 1,25,-1
 180 470 l 1,26,27
 198 508 198 508 235 539 c 128,-1,28
 272 570 272 570 323 570 c 0,29,30
 388 570 388 570 431 537 c 128,-1,31
 474 504 474 504 491 445 c 1,32,33
 494 463 494 463 513 493 c 128,-1,34
 532 523 532 523 564.5 546.5 c 128,-1,35
 597 570 597 570 640 570 c 0,36,0
 726 571 726 571 773 516.5 c 128,-1,1
EndSplineSet
EndChar

StartChar: n
Encoding: 110 110 98
Width: 580
GlyphClass: 2
Flags: W
AnchorPoint: "Anchor-3" 300 560 basechar 0
AnchorPoint: "Anchor-2" 300 0 basechar 0
LayerCount: 2
Fore
SplineSet
453 516.5 m 128,-1,1
 500 462 500 462 500 370 c 2,2,-1
 500 0 l 1,3,-1
 420 0 l 1,4,-1
 420 380 l 2,5,6
 420 443 420 443 397.5 471.5 c 128,-1,7
 375 500 375 500 320 500 c 0,8,9
 271 500 271 500 235.5 465 c 128,-1,10
 200 430 200 430 180 387 c 1,11,-1
 180 0 l 1,12,-1
 100 0 l 1,13,-1
 100 560 l 1,14,-1
 180 560 l 1,15,-1
 180 470 l 1,16,17
 199 508 199 508 234.5 539 c 128,-1,18
 270 570 270 570 320 570 c 0,19,0
 406 571 406 571 453 516.5 c 128,-1,1
EndSplineSet
EndChar

StartChar: o
Encoding: 111 111 100
Width: 560
GlyphClass: 1
Flags: W
LayerCount: 2
Fore
SplineSet
425 515 m 128,-1,1
 480 460 480 460 480 370 c 2,2,-1
 480 190 l 2,3,4
 480 100 480 100 425 45 c 128,-1,5
 370 -10 370 -10 280 -10 c 256,6,7
 190 -10 190 -10 135 45 c 128,-1,8
 80 100 80 100 80 190 c 2,9,-1
 80 370 l 2,10,11
 80 460 80 460 135 515 c 128,-1,12
 190 570 190 570 280 570 c 256,13,0
 370 570 370 570 425 515 c 128,-1,1
280 500 m 256,15,16
 160 500 160 500 160 380 c 2,17,-1
 160 180 l 2,18,19
 160 60 160 60 280 60 c 256,20,21
 400 60 400 60 400 180 c 2,22,-1
 400 380 l 2,23,14
 400 500 400 500 280 500 c 256,15,16
EndSplineSet
EndChar

StartChar: oslash
Encoding: 248 248 105
Width: 560
GlyphClass: 1
Flags: W
LayerCount: 2
Fore
SplineSet
443 494 m 1,0,1
 480 445 480 445 480 370 c 2,2,-1
 480 190 l 2,3,4
 480 100 480 100 425 45 c 128,-1,5
 370 -10 370 -10 280 -10 c 0,6,7
 218 -10 218 -10 170 18 c 1,8,-1
 160 0 l 1,9,-1
 80 0 l 1,10,-1
 117 66 l 1,11,12
 80 115 80 115 80 190 c 2,13,-1
 80 370 l 2,14,15
 80 460 80 460 135 515 c 128,-1,16
 190 570 190 570 280 570 c 0,17,18
 342 570 342 570 390 542 c 1,19,-1
 400 560 l 1,20,-1
 480 560 l 1,21,-1
 443 494 l 1,0,1
163 145 m 1,23,-1
 355 482 l 1,24,25
 327 500 327 500 280 500 c 0,26,27
 160 500 160 500 160 380 c 2,28,-1
 160 180 l 2,29,22
 160 162 160 162 163 145 c 1,23,-1
397 415 m 1,31,-1
 205 78 l 1,32,33
 234 60 234 60 280 60 c 0,34,35
 400 60 400 60 400 180 c 2,36,-1
 400 380 l 2,37,30
 400 399 400 399 397 415 c 1,31,-1
EndSplineSet
EndChar

StartChar: oe
Encoding: 339 339 107
Width: 879
GlyphClass: 2
Flags: W
AnchorPoint: "Anchor-3" 599 562 basechar 0
AnchorPoint: "Anchor-2" 599 2 basechar 0
LayerCount: 2
Fore
SplineSet
479 252 m 1,0,-1
 479 182 l 2,1,2
 479 62 479 62 599 62 c 0,3,4
 656 62 656 62 687.5 80 c 128,-1,5
 719 98 719 98 719 122 c 1,6,-1
 799 122 l 1,7,8
 799 87 799 87 774 57 c 128,-1,9
 749 27 749 27 703 9.5 c 128,-1,10
 657 -8 657 -8 599 -8 c 0,11,12
 529 -8 529 -8 479.5 26 c 128,-1,13
 430 60 430 60 410 120 c 1,14,15
 409 106 409 106 390.5 73.5 c 128,-1,16
 372 41 372 41 338.5 15.5 c 128,-1,17
 305 -10 305 -10 260 -10 c 0,18,19
 174 -11 174 -11 127 43.5 c 128,-1,20
 80 98 80 98 80 190 c 2,21,-1
 80 370 l 2,22,23
 80 462 80 462 127 516.5 c 128,-1,24
 174 571 174 571 260 570 c 0,25,26
 303 570 303 570 336 546 c 128,-1,27
 369 522 369 522 388 491.5 c 128,-1,28
 407 461 407 461 410 443 c 1,29,30
 429 503 429 503 479 537.5 c 128,-1,31
 529 572 529 572 599 572 c 0,32,33
 689 572 689 572 744 517 c 128,-1,34
 799 462 799 462 799 372 c 2,35,-1
 799 252 l 1,36,-1
 479 252 l 1,0,-1
479 322 m 1,37,-1
 719 322 l 1,38,-1
 719 382 l 2,39,40
 719 502 719 502 599 502 c 256,41,42
 479 502 479 502 479 382 c 2,43,-1
 479 322 l 1,37,-1
344 94.5 m 128,-1,45
 379 129 379 129 400 172 c 0,46,47
 399 179 399 179 399 192 c 2,48,-1
 399 372 l 2,49,50
 399 383 399 383 400 388 c 0,51,52
 379 431 379 431 344 465.5 c 128,-1,53
 309 500 309 500 260 500 c 0,54,55
 205 500 205 500 182.5 471.5 c 128,-1,56
 160 443 160 443 160 380 c 2,57,-1
 160 180 l 2,58,59
 160 117 160 117 182.5 88.5 c 128,-1,60
 205 60 205 60 260 60 c 0,61,44
 309 60 309 60 344 94.5 c 128,-1,45
EndSplineSet
EndChar

StartChar: p
Encoding: 112 112 108
Width: 580
GlyphClass: 1
Flags: W
LayerCount: 2
Fore
SplineSet
445 515 m 128,-1,1
 500 460 500 460 500 370 c 2,2,-1
 500 190 l 2,3,4
 500 100 500 100 445 45 c 128,-1,5
 390 -10 390 -10 300 -10 c 0,6,7
 280 -10 280 -10 251.5 -1.5 c 128,-1,8
 223 7 223 7 201.5 18.5 c 128,-1,9
 180 30 180 30 180 40 c 1,10,-1
 180 -160 l 1,11,-1
 100 -160 l 1,12,-1
 100 560 l 1,13,-1
 180 560 l 1,14,-1
 180 520 l 1,15,16
 180 530 180 530 201.5 541.5 c 128,-1,17
 223 553 223 553 251.5 561.5 c 128,-1,18
 280 570 280 570 300 570 c 0,19,0
 390 570 390 570 445 515 c 128,-1,1
180 380 m 2,21,-1
 180 180 l 2,22,23
 180 60 180 60 300 60 c 256,24,25
 420 60 420 60 420 180 c 2,26,-1
 420 380 l 2,27,28
 420 500 420 500 300 500 c 256,29,20
 180 500 180 500 180 380 c 2,21,-1
EndSplineSet
EndChar

StartChar: q
Encoding: 113 113 110
Width: 560
GlyphClass: 1
Flags: W
LayerCount: 2
Fore
SplineSet
135 515 m 128,-1,1
 80 460 80 460 80 370 c 2,2,-1
 80 190 l 2,3,4
 80 100 80 100 135 45 c 128,-1,5
 190 -10 190 -10 280 -10 c 0,6,7
 300 -10 300 -10 328.5 -1.5 c 128,-1,8
 357 7 357 7 378.5 18.5 c 128,-1,9
 400 30 400 30 400 40 c 1,10,-1
 400 -160 l 1,11,-1
 480 -160 l 1,12,-1
 480 560 l 1,13,-1
 400 560 l 1,14,-1
 400 520 l 1,15,16
 400 530 400 530 378.5 541.5 c 128,-1,17
 357 553 357 553 328.5 561.5 c 128,-1,18
 300 570 300 570 280 570 c 0,19,0
 190 570 190 570 135 515 c 128,-1,1
400 380 m 2,21,-1
 400 180 l 2,22,23
 400 60 400 60 280 60 c 256,24,25
 160 60 160 60 160 180 c 2,26,-1
 160 380 l 2,27,28
 160 500 160 500 280 500 c 256,29,20
 400 500 400 500 400 380 c 2,21,-1
EndSplineSet
EndChar

StartChar: r
Encoding: 114 114 111
Width: 540
GlyphClass: 1
Flags: W
LayerCount: 2
Fore
SplineSet
100 560 m 1,0,-1
 180 560 l 1,1,-1
 180 460 l 1,2,3
 180 479 180 479 201.5 505.5 c 128,-1,4
 223 532 223 532 252 551 c 128,-1,5
 281 570 281 570 300 570 c 0,6,7
 388 570 388 570 424 539.5 c 128,-1,8
 460 509 460 509 460 440 c 1,9,-1
 380 440 l 1,10,11
 380 471 380 471 362 485.5 c 128,-1,12
 344 500 344 500 300 500 c 0,13,14
 263 500 263 500 235.5 479.5 c 128,-1,15
 208 459 208 459 194 430.5 c 128,-1,16
 180 402 180 402 180 380 c 2,17,-1
 180 0 l 1,18,-1
 100 0 l 1,19,-1
 100 560 l 1,0,-1
EndSplineSet
EndChar

StartChar: s
Encoding: 115 115 112
Width: 560
GlyphClass: 1
Flags: W
LayerCount: 2
Fore
SplineSet
422.5 281.5 m 128,-1,1
 365 320 365 320 280 320 c 0,2,3
 240 320 240 320 216.5 324 c 128,-1,4
 193 328 193 328 176.5 345.5 c 128,-1,5
 160 363 160 363 160 400 c 0,6,7
 160 458 160 458 188.5 479 c 128,-1,8
 217 500 217 500 280 500 c 0,9,10
 336 500 336 500 363 482.5 c 128,-1,11
 390 465 390 465 390 440 c 1,12,-1
 470 440 l 1,13,14
 470 475 470 475 445.5 505 c 128,-1,15
 421 535 421 535 377.5 552.5 c 128,-1,16
 334 570 334 570 280 570 c 0,17,18
 186 570 186 570 133 528.5 c 128,-1,19
 80 487 80 487 80 400 c 0,20,21
 80 317 80 317 137.5 278.5 c 128,-1,22
 195 240 195 240 280 240 c 0,23,24
 320 240 320 240 343.5 236 c 128,-1,25
 367 232 367 232 383.5 214.5 c 128,-1,26
 400 197 400 197 400 160 c 0,27,28
 400 102 400 102 372 81 c 128,-1,29
 344 60 344 60 280 60 c 0,30,31
 224 60 224 60 197 77.5 c 128,-1,32
 170 95 170 95 170 120 c 1,33,-1
 90 120 l 1,34,35
 90 85 90 85 113 55 c 128,-1,36
 136 25 136 25 179 7.5 c 128,-1,37
 222 -10 222 -10 280 -10 c 0,38,39
 374 -10 374 -10 427 31.5 c 128,-1,40
 480 73 480 73 480 160 c 0,41,0
 480 243 480 243 422.5 281.5 c 128,-1,1
EndSplineSet
EndChar

StartChar: t
Encoding: 116 116 114
Width: 540
GlyphClass: 1
Flags: W
LayerCount: 2
Fore
SplineSet
140 500 m 1,0,-1
 60 500 l 1,1,-1
 60 560 l 1,2,-1
 140 560 l 1,3,-1
 140 760 l 1,4,-1
 220 760 l 1,5,-1
 220 560 l 1,6,-1
 420 560 l 1,7,-1
 420 500 l 1,8,-1
 220 500 l 1,9,-1
 220 140 l 2,10,11
 220 95 220 95 237.5 77.5 c 128,-1,12
 255 60 255 60 300 60 c 0,13,14
 344 60 344 60 362 74.5 c 128,-1,15
 380 89 380 89 380 120 c 1,16,-1
 460 120 l 1,17,18
 460 51 460 51 424 20.5 c 128,-1,19
 388 -10 388 -10 300 -10 c 0,20,21
 239 -10 239 -10 204.5 5 c 128,-1,22
 170 20 170 20 155 54.5 c 128,-1,23
 140 89 140 89 140 150 c 2,24,-1
 140 500 l 1,0,-1
EndSplineSet
EndChar

StartChar: u
Encoding: 117 117 115
Width: 600
GlyphClass: 1
Flags: W
LayerCount: 2
Fore
SplineSet
500 560 m 1,0,-1
 500 0 l 1,1,-1
 420 0 l 1,2,-1
 420 90 l 1,3,4
 401 52 401 52 365.5 21 c 128,-1,5
 330 -10 330 -10 280 -10 c 0,6,7
 194 -11 194 -11 147 43.5 c 128,-1,8
 100 98 100 98 100 190 c 2,9,-1
 100 560 l 1,10,-1
 180 560 l 1,11,-1
 180 180 l 2,12,13
 180 117 180 117 202.5 88.5 c 128,-1,14
 225 60 225 60 280 60 c 0,15,16
 329 60 329 60 364.5 95 c 128,-1,17
 400 130 400 130 420 173 c 1,18,-1
 420 560 l 1,19,-1
 500 560 l 1,0,-1
EndSplineSet
EndChar

StartChar: v
Encoding: 118 118 120
Width: 560
GlyphClass: 1
Flags: W
LayerCount: 2
Fore
SplineSet
195 360.5 m 128,-1,1
 230 240 230 240 280 120 c 1,2,3
 330 240 330 240 365 360.5 c 128,-1,4
 400 481 400 481 400 560 c 1,5,-1
 480 560 l 1,6,7
 480 481 480 481 433.5 326 c 128,-1,8
 387 171 387 171 320 0 c 1,9,-1
 240 0 l 1,10,11
 173 171 173 171 126.5 326 c 128,-1,12
 80 481 80 481 80 560 c 1,13,-1
 160 560 l 1,14,0
 160 481 160 481 195 360.5 c 128,-1,1
EndSplineSet
EndChar

StartChar: w
Encoding: 119 119 121
Width: 880
GlyphClass: 2
Flags: W
AnchorPoint: "Anchor-3" 440 560 basechar 0
AnchorPoint: "Anchor-2" 440 0 basechar 0
LayerCount: 2
Fore
SplineSet
475 240.5 m 128,-1,1
 440 361 440 361 440 440 c 1,2,3
 440 361 440 361 405 240.5 c 128,-1,4
 370 120 370 120 320 0 c 1,5,-1
 240 0 l 1,6,7
 173 171 173 171 126.5 326 c 128,-1,8
 80 481 80 481 80 560 c 1,9,-1
 160 560 l 1,10,11
 160 481 160 481 195 360.5 c 128,-1,12
 230 240 230 240 280 120 c 1,13,14
 330 240 330 240 365 360.5 c 128,-1,15
 400 481 400 481 400 560 c 1,16,-1
 480 560 l 1,17,18
 480 481 480 481 515 360.5 c 128,-1,19
 550 240 550 240 600 120 c 1,20,21
 650 240 650 240 685 360.5 c 128,-1,22
 720 481 720 481 720 560 c 1,23,-1
 800 560 l 1,24,25
 800 481 800 481 753.5 326 c 128,-1,26
 707 171 707 171 640 0 c 1,27,-1
 560 0 l 1,28,0
 510 120 510 120 475 240.5 c 128,-1,1
EndSplineSet
EndChar

StartChar: x
Encoding: 120 120 126
Width: 560
GlyphClass: 1
Flags: W
LayerCount: 2
Fore
SplineSet
195 460.5 m 128,-1,1
 230 400 230 400 280 340 c 1,2,3
 330 400 330 400 365 460.5 c 128,-1,4
 400 521 400 521 400 560 c 1,5,-1
 480 560 l 1,6,7
 480 521 480 521 439.5 443 c 128,-1,8
 399 365 399 365 340 280 c 1,9,10
 399 195 399 195 439.5 117 c 128,-1,11
 480 39 480 39 480 0 c 1,12,-1
 400 0 l 1,13,14
 400 39 400 39 365 99.5 c 128,-1,15
 330 160 330 160 280 220 c 1,16,17
 230 160 230 160 195 99.5 c 128,-1,18
 160 39 160 39 160 0 c 1,19,-1
 80 0 l 1,20,21
 80 39 80 39 120.5 117 c 128,-1,22
 161 195 161 195 220 280 c 1,23,24
 161 365 161 365 120.5 443 c 128,-1,25
 80 521 80 521 80 560 c 1,26,-1
 160 560 l 1,27,0
 160 521 160 521 195 460.5 c 128,-1,1
EndSplineSet
EndChar

StartChar: y
Encoding: 121 121 127
Width: 600
GlyphClass: 2
Flags: W
AnchorPoint: "Anchor-3" 300 560 basechar 0
AnchorPoint: "Anchor-2" 300 0 basechar 0
LayerCount: 2
Fore
SplineSet
500 560 m 1,0,-1
 500 -10 l 2,1,2
 500 -100 500 -100 445 -155 c 128,-1,3
 390 -210 390 -210 300 -210 c 0,4,5
 242 -210 242 -210 196 -192.5 c 128,-1,6
 150 -175 150 -175 125 -145 c 128,-1,7
 100 -115 100 -115 100 -80 c 1,8,-1
 180 -80 l 1,9,10
 180 -104 180 -104 211.5 -122 c 128,-1,11
 243 -140 243 -140 300 -140 c 0,12,13
 420 -140 420 -140 420 -20 c 2,14,-1
 420 110 l 1,15,16
 401 72 401 72 365.5 41 c 128,-1,17
 330 10 330 10 280 10 c 0,18,19
 194 9 194 9 147 63.5 c 128,-1,20
 100 118 100 118 100 210 c 2,21,-1
 100 560 l 1,22,-1
 180 560 l 1,23,-1
 180 200 l 2,24,25
 180 137 180 137 202.5 108.5 c 128,-1,26
 225 80 225 80 280 80 c 0,27,28
 329 80 329 80 364.5 115 c 128,-1,29
 400 150 400 150 420 193 c 1,30,-1
 420 560 l 1,31,-1
 500 560 l 1,0,-1
EndSplineSet
EndChar

StartChar: z
Encoding: 122 122 132
Width: 560
GlyphClass: 1
Flags: W
LayerCount: 2
Fore
SplineSet
80 490 m 1,0,-1
 380 490 l 1,1,2
 380 460 380 460 343 412 c 128,-1,3
 306 364 306 364 230 280 c 0,4,5
 156 199 156 199 118 149.5 c 128,-1,6
 80 100 80 100 80 70 c 2,7,-1
 80 0 l 1,8,-1
 480 0 l 1,9,-1
 480 70 l 1,10,-1
 180 70 l 1,11,12
 180 100 180 100 218 149.5 c 128,-1,13
 256 199 256 199 330 280 c 0,14,15
 406 364 406 364 443 412 c 128,-1,16
 480 460 480 460 480 490 c 2,17,-1
 480 560 l 1,18,-1
 80 560 l 1,19,-1
 80 490 l 1,0,-1
EndSplineSet
EndChar

StartChar: m.001
Encoding: 65537 -1 133
Width: 880
GlyphClass: 1
Flags: W
LayerCount: 2
Fore
SplineSet
753 516.5 m 128,-1,1
 800 462 800 462 800 370 c 2,2,-1
 800 0 l 1,3,-1
 720 0 l 1,4,-1
 720 380 l 2,5,6
 720 443 720 443 697.5 471.5 c 128,-1,7
 675 500 675 500 620 500 c 0,8,9
 570 500 570 500 534.5 464.5 c 128,-1,10
 499 429 499 429 480 387 c 1,11,-1
 480 370 l 1,12,-1
 480 0 l 1,13,-1
 400 0 l 1,14,-1
 400 380 l 2,15,16
 400 443 400 443 377.5 471.5 c 128,-1,17
 355 500 355 500 300 500 c 0,18,19
 251 500 251 500 215.5 465 c 128,-1,20
 180 430 180 430 160 387 c 1,21,-1
 160 0 l 1,22,-1
 80 0 l 1,23,-1
 80 560 l 1,24,-1
 160 560 l 1,25,-1
 160 470 l 1,26,27
 178 508 178 508 215 539 c 128,-1,28
 252 570 252 570 303 570 c 0,29,30
 368 570 368 570 411 537 c 128,-1,31
 454 504 454 504 471 445 c 1,32,33
 474 463 474 463 493 493 c 128,-1,34
 512 523 512 523 544.5 546.5 c 128,-1,35
 577 570 577 570 620 570 c 0,36,0
 706 571 706 571 753 516.5 c 128,-1,1
EndSplineSet
EndChar

StartChar: m.002
Encoding: 65539 -1 135
Width: 880
GlyphClass: 1
Flags: W
LayerCount: 2
Fore
SplineSet
753 516.5 m 128,-1,1
 800 462 800 462 800 370 c 2,2,-1
 800 0 l 1,3,-1
 720 0 l 1,4,-1
 720 380 l 2,5,6
 720 443 720 443 697.5 471.5 c 128,-1,7
 675 500 675 500 620 500 c 0,8,9
 570 500 570 500 534.5 464.5 c 128,-1,10
 499 429 499 429 480 387 c 1,11,-1
 480 370 l 1,12,-1
 480 0 l 1,13,-1
 400 0 l 1,14,-1
 400 380 l 2,15,16
 400 443 400 443 377.5 471.5 c 128,-1,17
 355 500 355 500 300 500 c 0,18,19
 251 500 251 500 215.5 465 c 128,-1,20
 180 430 180 430 160 387 c 1,21,-1
 160 0 l 1,22,-1
 80 0 l 1,23,-1
 80 560 l 1,24,-1
 160 560 l 1,25,-1
 160 470 l 1,26,27
 178 508 178 508 215 539 c 128,-1,28
 252 570 252 570 303 570 c 0,29,30
 368 570 368 570 411 537 c 128,-1,31
 454 504 454 504 471 445 c 1,32,33
 474 463 474 463 493 493 c 128,-1,34
 512 523 512 523 544.5 546.5 c 128,-1,35
 577 570 577 570 620 570 c 0,36,0
 706 571 706 571 753 516.5 c 128,-1,1
EndSplineSet
EndChar

StartChar: m.003
Encoding: 65540 -1 136
Width: 880
GlyphClass: 1
Flags: W
LayerCount: 2
Fore
SplineSet
753 516.5 m 128,-1,1
 800 462 800 462 800 370 c 2,2,-1
 800 0 l 1,3,-1
 720 0 l 1,4,-1
 720 380 l 2,5,6
 720 443 720 443 697.5 471.5 c 128,-1,7
 675 500 675 500 620 500 c 0,8,9
 570 500 570 500 534.5 464.5 c 128,-1,10
 499 429 499 429 480 387 c 1,11,-1
 480 370 l 1,12,-1
 480 0 l 1,13,-1
 400 0 l 1,14,-1
 400 380 l 2,15,16
 400 443 400 443 377.5 471.5 c 128,-1,17
 355 500 355 500 300 500 c 0,18,19
 251 500 251 500 215.5 465 c 128,-1,20
 180 430 180 430 160 387 c 1,21,-1
 160 0 l 1,22,-1
 80 0 l 1,23,-1
 80 560 l 1,24,-1
 160 560 l 1,25,-1
 160 470 l 1,26,27
 178 508 178 508 215 539 c 128,-1,28
 252 570 252 570 303 570 c 0,29,30
 368 570 368 570 411 537 c 128,-1,31
 454 504 454 504 471 445 c 1,32,33
 474 463 474 463 493 493 c 128,-1,34
 512 523 512 523 544.5 546.5 c 128,-1,35
 577 570 577 570 620 570 c 0,36,0
 706 571 706 571 753 516.5 c 128,-1,1
EndSplineSet
EndChar

StartChar: m.004
Encoding: 65541 -1 137
Width: 880
GlyphClass: 1
Flags: W
LayerCount: 2
Fore
SplineSet
753 516.5 m 128,-1,1
 800 462 800 462 800 370 c 2,2,-1
 800 0 l 1,3,-1
 720 0 l 1,4,-1
 720 380 l 2,5,6
 720 443 720 443 697.5 471.5 c 128,-1,7
 675 500 675 500 620 500 c 0,8,9
 570 500 570 500 534.5 464.5 c 128,-1,10
 499 429 499 429 480 387 c 1,11,-1
 480 370 l 1,12,-1
 480 0 l 1,13,-1
 400 0 l 1,14,-1
 400 380 l 2,15,16
 400 443 400 443 377.5 471.5 c 128,-1,17
 355 500 355 500 300 500 c 0,18,19
 251 500 251 500 215.5 465 c 128,-1,20
 180 430 180 430 160 387 c 1,21,-1
 160 0 l 1,22,-1
 80 0 l 1,23,-1
 80 560 l 1,24,-1
 160 560 l 1,25,-1
 160 470 l 1,26,27
 178 508 178 508 215 539 c 128,-1,28
 252 570 252 570 303 570 c 0,29,30
 368 570 368 570 411 537 c 128,-1,31
 454 504 454 504 471 445 c 1,32,33
 474 463 474 463 493 493 c 128,-1,34
 512 523 512 523 544.5 546.5 c 128,-1,35
 577 570 577 570 620 570 c 0,36,0
 706 571 706 571 753 516.5 c 128,-1,1
EndSplineSet
EndChar

StartChar: zero
Encoding: 48 48 138
Width: 560
GlyphClass: 1
Flags: W
LayerCount: 2
Fore
SplineSet
133.5 77 m 128,-1,1
 80 164 80 164 80 380 c 256,2,3
 80 596 80 596 133.5 683 c 128,-1,4
 187 770 187 770 280 770 c 256,5,6
 373 770 373 770 426.5 683 c 128,-1,7
 480 596 480 596 480 380 c 256,8,9
 480 164 480 164 426.5 77 c 128,-1,10
 373 -10 373 -10 280 -10 c 256,11,0
 187 -10 187 -10 133.5 77 c 128,-1,1
367 135.5 m 128,-1,13
 400 211 400 211 400 380 c 256,14,15
 400 549 400 549 367 624.5 c 128,-1,16
 334 700 334 700 280 700 c 256,17,18
 226 700 226 700 193 624.5 c 128,-1,19
 160 549 160 549 160 380 c 256,20,21
 160 211 160 211 193 135.5 c 128,-1,22
 226 60 226 60 280 60 c 256,23,12
 334 60 334 60 367 135.5 c 128,-1,13
210 220 m 1,24,-1
 200 300 l 1,25,-1
 350 540 l 1,26,-1
 360 460 l 1,27,-1
 210 220 l 1,24,-1
EndSplineSet
EndChar

StartChar: one
Encoding: 49 49 139
Width: 560
GlyphClass: 1
Flags: W
LayerCount: 2
Fore
SplineSet
80 70 m 1,0,-1
 240 70 l 1,1,-1
 240 640 l 1,2,3
 240 620 240 620 182 587 c 128,-1,4
 124 554 124 554 40 520 c 1,5,-1
 40 600 l 1,6,7
 124 635 124 635 182 678 c 128,-1,8
 240 721 240 721 240 760 c 1,9,-1
 320 760 l 1,10,-1
 320 70 l 1,11,-1
 480 70 l 1,12,-1
 480 0 l 1,13,-1
 80 0 l 1,14,-1
 80 70 l 1,0,-1
EndSplineSet
EndChar

StartChar: two
Encoding: 50 50 140
Width: 540
GlyphClass: 1
Flags: W
LayerCount: 2
Fore
SplineSet
116.5 178 m 128,-1,1
 153 233 153 233 225 315 c 0,2,3
 298 398 298 398 334 452.5 c 128,-1,4
 370 507 370 507 370 560 c 0,5,6
 370 624 370 624 339 662 c 128,-1,7
 308 700 308 700 250 700 c 0,8,9
 193 700 193 700 166.5 662 c 128,-1,10
 140 624 140 624 140 560 c 1,11,-1
 60 560 l 1,12,13
 60 620 60 620 82.5 668 c 128,-1,14
 105 716 105 716 148 743 c 128,-1,15
 191 770 191 770 250 770 c 256,16,17
 309 770 309 770 354.5 742.5 c 128,-1,18
 400 715 400 715 425 667.5 c 128,-1,19
 450 620 450 620 450 560 c 0,20,21
 450 503 450 503 409 439 c 128,-1,22
 368 375 368 375 289 281 c 0,23,24
 224 203 224 203 192 155.5 c 128,-1,25
 160 108 160 108 160 70 c 1,26,-1
 460 70 l 1,27,-1
 460 0 l 1,28,-1
 80 0 l 1,29,-1
 80 70 l 2,30,0
 80 123 80 123 116.5 178 c 128,-1,1
EndSplineSet
EndChar

StartChar: three
Encoding: 51 51 141
Width: 550
GlyphClass: 1
Flags: W
LayerCount: 2
Fore
SplineSet
168 17 m 128,-1,1
 125 44 125 44 102.5 92 c 128,-1,2
 80 140 80 140 80 200 c 1,3,-1
 160 200 l 1,4,5
 160 136 160 136 186.5 98 c 128,-1,6
 213 60 213 60 270 60 c 0,7,8
 328 60 328 60 359 98 c 128,-1,9
 390 136 390 136 390 200 c 0,10,11
 390 262 390 262 369.5 311 c 128,-1,12
 349 360 349 360 320 360 c 2,13,-1
 240 360 l 1,14,-1
 240 440 l 1,15,-1
 320 440 l 2,16,17
 351 440 351 440 370.5 471 c 128,-1,18
 390 502 390 502 390 560 c 0,19,20
 390 624 390 624 359 662 c 128,-1,21
 328 700 328 700 270 700 c 0,22,23
 213 700 213 700 186.5 662 c 128,-1,24
 160 624 160 624 160 560 c 1,25,-1
 80 560 l 1,26,27
 80 620 80 620 102.5 668 c 128,-1,28
 125 716 125 716 168 743 c 128,-1,29
 211 770 211 770 270 770 c 256,30,31
 329 770 329 770 374.5 743 c 128,-1,32
 420 716 420 716 445 668 c 128,-1,33
 470 620 470 620 470 560 c 0,34,35
 470 501 470 501 449.5 460 c 128,-1,36
 429 419 429 419 400 400 c 1,37,38
 429 364 429 364 449.5 311.5 c 128,-1,39
 470 259 470 259 470 200 c 0,40,41
 470 140 470 140 445 92.5 c 128,-1,42
 420 45 420 45 374.5 17.5 c 128,-1,43
 329 -10 329 -10 270 -10 c 256,44,0
 211 -10 211 -10 168 17 c 128,-1,1
EndSplineSet
EndChar

StartChar: four
Encoding: 52 52 142
Width: 600
GlyphClass: 1
Flags: W
LayerCount: 2
Fore
SplineSet
400 240 m 1,0,-1
 80 240 l 1,1,-1
 80 310 l 2,2,3
 80 349 80 349 173 476.5 c 128,-1,4
 266 604 266 604 400 760 c 1,5,-1
 480 760 l 1,6,-1
 480 310 l 1,7,-1
 560 310 l 1,8,-1
 560 240 l 1,9,-1
 480 240 l 1,10,-1
 480 0 l 1,11,-1
 400 0 l 1,12,-1
 400 240 l 1,0,-1
400 310 m 1,13,-1
 400 640 l 1,14,15
 300 518 300 518 230 424 c 128,-1,16
 160 330 160 330 160 310 c 1,17,-1
 400 310 l 1,13,-1
EndSplineSet
EndChar

StartChar: five
Encoding: 53 53 143
Width: 560
GlyphClass: 1
Flags: W
LayerCount: 2
Fore
SplineSet
133 31.5 m 128,-1,1
 80 73 80 73 80 160 c 1,2,-1
 160 160 l 1,3,4
 160 103 160 103 188.5 81.5 c 128,-1,5
 217 60 217 60 280 60 c 0,6,7
 400 60 400 60 400 180 c 2,8,-1
 400 280 l 2,9,10
 400 400 400 400 280 400 c 2,11,-1
 80 400 l 1,12,-1
 80 760 l 1,13,-1
 480 760 l 1,14,-1
 480 690 l 1,15,-1
 160 690 l 1,16,-1
 160 470 l 1,17,-1
 280 470 l 2,18,19
 370 470 370 470 425 415 c 128,-1,20
 480 360 480 360 480 270 c 2,21,-1
 480 190 l 2,22,23
 480 100 480 100 425 45 c 128,-1,24
 370 -10 370 -10 280 -10 c 0,25,0
 186 -10 186 -10 133 31.5 c 128,-1,1
EndSplineSet
EndChar

StartChar: six
Encoding: 54 54 144
Width: 560
GlyphClass: 1
Flags: W
LayerCount: 2
Fore
SplineSet
135 45 m 128,-1,1
 80 100 80 100 80 190 c 2,2,-1
 80 570 l 2,3,4
 80 660 80 660 135 715 c 128,-1,5
 190 770 190 770 280 770 c 0,6,7
 374 770 374 770 427 728.5 c 128,-1,8
 480 687 480 687 480 600 c 1,9,-1
 400 600 l 1,10,11
 400 658 400 658 371.5 679 c 128,-1,12
 343 700 343 700 280 700 c 0,13,14
 160 700 160 700 160 580 c 2,15,-1
 160 380 l 1,16,17
 160 399 160 399 181 420 c 128,-1,18
 202 441 202 441 231 455.5 c 128,-1,19
 260 470 260 470 280 470 c 0,20,21
 370 470 370 470 425 415 c 128,-1,22
 480 360 480 360 480 270 c 2,23,-1
 480 190 l 2,24,25
 480 100 480 100 425 45 c 128,-1,26
 370 -10 370 -10 280 -10 c 256,27,0
 190 -10 190 -10 135 45 c 128,-1,1
400 180 m 2,29,-1
 400 280 l 2,30,31
 400 400 400 400 280 400 c 0,32,33
 242 400 242 400 215 381.5 c 128,-1,34
 188 363 188 363 174 335 c 128,-1,35
 160 307 160 307 160 280 c 2,36,-1
 160 180 l 2,37,38
 160 60 160 60 280 60 c 256,39,28
 400 60 400 60 400 180 c 2,29,-1
EndSplineSet
EndChar

StartChar: seven
Encoding: 55 55 145
Width: 560
GlyphClass: 1
Flags: W
LayerCount: 2
Fore
SplineSet
200 172.5 m 128,-1,1
 240 283 240 283 311 447 c 0,2,3
 357 555 357 555 378.5 611.5 c 128,-1,4
 400 668 400 668 400 690 c 1,5,-1
 80 690 l 1,6,-1
 80 760 l 1,7,-1
 480 760 l 1,8,-1
 480 690 l 2,9,10
 480 668 480 668 458.5 611.5 c 128,-1,11
 437 555 437 555 391 447 c 0,12,13
 320 283 320 283 280 172.5 c 128,-1,14
 240 62 240 62 240 0 c 1,15,-1
 160 0 l 1,16,0
 160 62 160 62 200 172.5 c 128,-1,1
EndSplineSet
EndChar

StartChar: eight
Encoding: 56 56 146
Width: 560
GlyphClass: 1
Flags: W
LayerCount: 2
Fore
SplineSet
135 45 m 128,-1,1
 80 100 80 100 80 190 c 2,2,-1
 80 280 l 2,3,4
 80 334 80 334 103.5 364 c 128,-1,5
 127 394 127 394 160 400 c 1,6,7
 127 414 127 414 103.5 445 c 128,-1,8
 80 476 80 476 80 520 c 2,9,-1
 80 570 l 2,10,11
 80 661 80 661 135 715.5 c 128,-1,12
 190 770 190 770 280 770 c 256,13,14
 370 770 370 770 425 715.5 c 128,-1,15
 480 661 480 661 480 570 c 2,16,-1
 480 520 l 2,17,18
 480 481 480 481 456.5 449.5 c 128,-1,19
 433 418 433 418 400 400 c 1,20,21
 433 394 433 394 456.5 364 c 128,-1,22
 480 334 480 334 480 280 c 2,23,-1
 480 190 l 2,24,25
 480 100 480 100 425 45 c 128,-1,26
 370 -10 370 -10 280 -10 c 256,27,0
 190 -10 190 -10 135 45 c 128,-1,1
400 550 m 2,29,-1
 400 580 l 2,30,31
 400 700 400 700 280 700 c 256,32,33
 160 700 160 700 160 580 c 2,34,-1
 160 550 l 2,35,36
 160 430 160 430 280 430 c 256,37,28
 400 430 400 430 400 550 c 2,29,-1
400 180 m 2,39,-1
 400 250 l 2,40,41
 400 370 400 370 280 370 c 256,42,43
 160 370 160 370 160 250 c 2,44,-1
 160 180 l 2,45,46
 160 60 160 60 280 60 c 256,47,38
 400 60 400 60 400 180 c 2,39,-1
EndSplineSet
EndChar

StartChar: nine
Encoding: 57 57 147
Width: 560
GlyphClass: 1
Flags: W
LayerCount: 2
Fore
SplineSet
425 715 m 128,-1,1
 480 660 480 660 480 570 c 2,2,-1
 480 190 l 2,3,4
 480 100 480 100 425 45 c 128,-1,5
 370 -10 370 -10 280 -10 c 0,6,7
 186 -10 186 -10 133 31.5 c 128,-1,8
 80 73 80 73 80 160 c 1,9,-1
 160 160 l 1,10,11
 160 103 160 103 188.5 81.5 c 128,-1,12
 217 60 217 60 280 60 c 0,13,14
 400 60 400 60 400 180 c 2,15,-1
 400 380 l 1,16,17
 400 361 400 361 379 340 c 128,-1,18
 358 319 358 319 329 304.5 c 128,-1,19
 300 290 300 290 280 290 c 0,20,21
 190 290 190 290 135 345 c 128,-1,22
 80 400 80 400 80 490 c 2,23,-1
 80 570 l 2,24,25
 80 660 80 660 135 715 c 128,-1,26
 190 770 190 770 280 770 c 256,27,0
 370 770 370 770 425 715 c 128,-1,1
160 580 m 2,29,-1
 160 480 l 2,30,31
 160 360 160 360 280 360 c 0,32,33
 318 360 318 360 345 378.5 c 128,-1,34
 372 397 372 397 386 425 c 128,-1,35
 400 453 400 453 400 480 c 2,36,-1
 400 580 l 2,37,38
 400 700 400 700 280 700 c 256,39,28
 160 700 160 700 160 580 c 2,29,-1
EndSplineSet
EndChar

StartChar: fraction
Encoding: 8260 8260 148
Width: 640
GlyphClass: 1
Flags: W
LayerCount: 2
Fore
SplineSet
80 0 m 1,0,-1
 480 760 l 1,1,-1
 560 760 l 1,2,-1
 160 0 l 1,3,-1
 80 0 l 1,0,-1
EndSplineSet
EndChar

StartChar: period
Encoding: 46 46 149
Width: 500
GlyphClass: 1
Flags: W
LayerCount: 2
Fore
SplineSet
186.5 16.5 m 128,-1,1
 160 43 160 43 160 80 c 0,2,3
 160 118 160 118 186.5 144 c 128,-1,4
 213 170 213 170 250 170 c 0,5,6
 288 170 288 170 314 144 c 128,-1,7
 340 118 340 118 340 80 c 0,8,9
 340 43 340 43 314 16.5 c 128,-1,10
 288 -10 288 -10 250 -10 c 0,11,0
 213 -10 213 -10 186.5 16.5 c 128,-1,1
EndSplineSet
EndChar

StartChar: comma
Encoding: 44 44 150
Width: 500
GlyphClass: 1
Flags: W
LayerCount: 2
Fore
SplineSet
221.5 -95 m 128,-1,1
 244 -60 244 -60 250 -10 c 1,2,3
 213 -10 213 -10 186.5 16.5 c 128,-1,4
 160 43 160 43 160 80 c 0,5,6
 160 118 160 118 186.5 144 c 128,-1,7
 213 170 213 170 250 170 c 0,8,9
 288 170 288 170 314 144 c 128,-1,10
 340 118 340 118 340 80 c 0,11,12
 340 37 340 37 326 -27.5 c 128,-1,13
 312 -92 312 -92 272 -146 c 128,-1,14
 232 -200 232 -200 160 -200 c 1,15,-1
 160 -130 l 1,16,0
 199 -130 199 -130 221.5 -95 c 128,-1,1
EndSplineSet
EndChar

StartChar: exclam
Encoding: 33 33 154
Width: 440
GlyphClass: 2
Flags: W
AnchorPoint: "Anchor-0" 220 50 basechar 0
LayerCount: 2
Fore
SplineSet
180 240 m 1,0,-1
 170 760 l 1,1,-1
 270 760 l 1,2,-1
 260 240 l 1,3,-1
 180 240 l 1,0,-1
177.5 -42.5 m 128,-1,5
 160 -25 160 -25 160 0 c 256,6,7
 160 25 160 25 177.5 42.5 c 128,-1,8
 195 60 195 60 220 60 c 256,9,10
 245 60 245 60 262.5 42.5 c 128,-1,11
 280 25 280 25 280 0 c 256,12,13
 280 -25 280 -25 262.5 -42.5 c 128,-1,14
 245 -60 245 -60 220 -60 c 256,15,4
 195 -60 195 -60 177.5 -42.5 c 128,-1,5
EndSplineSet
EndChar

StartChar: exclamdown
Encoding: 161 161 155
Width: 440
GlyphClass: 2
Flags: W
AnchorPoint: "Anchor-1" 220 510 basechar 0
LayerCount: 2
Fore
SplineSet
262.5 602.5 m 128,-1,1
 280 585 280 585 280 560 c 256,2,3
 280 535 280 535 262.5 517.5 c 128,-1,4
 245 500 245 500 220 500 c 256,5,6
 195 500 195 500 177.5 517.5 c 128,-1,7
 160 535 160 535 160 560 c 256,8,9
 160 585 160 585 177.5 602.5 c 128,-1,10
 195 620 195 620 220 620 c 256,11,0
 245 620 245 620 262.5 602.5 c 128,-1,1
260 320 m 1,12,-1
 270 -200 l 1,13,-1
 170 -200 l 1,14,-1
 180 320 l 1,15,-1
 260 320 l 1,12,-1
EndSplineSet
EndChar

StartChar: question
Encoding: 63 63 156
Width: 560
GlyphClass: 2
Flags: W
AnchorPoint: "Anchor-0" 280 50 basechar 0
LayerCount: 2
Fore
SplineSet
259 368 m 128,-1,1
 278 393 278 393 316 432 c 0,2,3
 358 476 358 476 379 504.5 c 128,-1,4
 400 533 400 533 400 560 c 0,5,6
 400 623 400 623 369 661.5 c 128,-1,7
 338 700 338 700 280 700 c 256,8,9
 222 700 222 700 191 661.5 c 128,-1,10
 160 623 160 623 160 560 c 1,11,-1
 80 560 l 1,12,13
 80 620 80 620 105 667.5 c 128,-1,14
 130 715 130 715 175.5 742.5 c 128,-1,15
 221 770 221 770 280 770 c 256,16,17
 339 770 339 770 384.5 742.5 c 128,-1,18
 430 715 430 715 455 667.5 c 128,-1,19
 480 620 480 620 480 560 c 0,20,21
 480 512 480 512 452 474 c 128,-1,22
 424 436 424 436 376 392 c 0,23,24
 347 366 347 366 333.5 350 c 128,-1,25
 320 334 320 334 320 320 c 2,26,-1
 320 240 l 1,27,-1
 240 240 l 1,28,-1
 240 320 l 2,29,0
 240 343 240 343 259 368 c 128,-1,1
237.5 -42.5 m 128,-1,31
 220 -25 220 -25 220 0 c 256,32,33
 220 25 220 25 237.5 42.5 c 128,-1,34
 255 60 255 60 280 60 c 256,35,36
 305 60 305 60 322.5 42.5 c 128,-1,37
 340 25 340 25 340 0 c 256,38,39
 340 -25 340 -25 322.5 -42.5 c 128,-1,40
 305 -60 305 -60 280 -60 c 256,41,30
 255 -60 255 -60 237.5 -42.5 c 128,-1,31
EndSplineSet
EndChar

StartChar: questiondown
Encoding: 191 191 157
Width: 560
GlyphClass: 2
Flags: W
AnchorPoint: "Anchor-1" 280 510 basechar 0
LayerCount: 2
Fore
SplineSet
322.5 602.5 m 128,-1,1
 340 585 340 585 340 560 c 256,2,3
 340 535 340 535 322.5 517.5 c 128,-1,4
 305 500 305 500 280 500 c 256,5,6
 255 500 255 500 237.5 517.5 c 128,-1,7
 220 535 220 535 220 560 c 256,8,9
 220 585 220 585 237.5 602.5 c 128,-1,10
 255 620 255 620 280 620 c 256,11,0
 305 620 305 620 322.5 602.5 c 128,-1,1
301 192 m 128,-1,13
 282 167 282 167 244 128 c 0,14,15
 202 84 202 84 181 55.5 c 128,-1,16
 160 27 160 27 160 0 c 0,17,18
 160 -63 160 -63 191 -101.5 c 128,-1,19
 222 -140 222 -140 280 -140 c 256,20,21
 338 -140 338 -140 369 -101.5 c 128,-1,22
 400 -63 400 -63 400 0 c 1,23,-1
 480 0 l 1,24,25
 480 -60 480 -60 455 -107.5 c 128,-1,26
 430 -155 430 -155 384.5 -182.5 c 128,-1,27
 339 -210 339 -210 280 -210 c 256,28,29
 221 -210 221 -210 175.5 -182.5 c 128,-1,30
 130 -155 130 -155 105 -107.5 c 128,-1,31
 80 -60 80 -60 80 0 c 0,32,33
 80 48 80 48 108 86 c 128,-1,34
 136 124 136 124 184 168 c 0,35,36
 213 194 213 194 226.5 210 c 128,-1,37
 240 226 240 226 240 240 c 2,38,-1
 240 320 l 1,39,-1
 320 320 l 1,40,-1
 320 240 l 2,41,12
 320 217 320 217 301 192 c 128,-1,13
EndSplineSet
EndChar

StartChar: bullet
Encoding: 8226 8226 159
Width: 480
GlyphClass: 1
Flags: W
LayerCount: 2
Fore
SplineSet
175 167.5 m 128,-1,1
 145 185 145 185 127.5 215 c 128,-1,2
 110 245 110 245 110 280 c 256,3,4
 110 315 110 315 127.5 345 c 128,-1,5
 145 375 145 375 175 392.5 c 128,-1,6
 205 410 205 410 240 410 c 256,7,8
 275 410 275 410 305 392.5 c 128,-1,9
 335 375 335 375 352.5 345 c 128,-1,10
 370 315 370 315 370 280 c 256,11,12
 370 245 370 245 352.5 215 c 128,-1,13
 335 185 335 185 305 167.5 c 128,-1,14
 275 150 275 150 240 150 c 256,15,0
 205 150 205 150 175 167.5 c 128,-1,1
EndSplineSet
EndChar

StartChar: asterisk
Encoding: 42 42 160
Width: 540
GlyphClass: 1
Flags: W
LayerCount: 2
Fore
SplineSet
230 80 m 1,0,-1
 240 220 l 1,1,-1
 130 130 l 1,2,-1
 80 190 l 1,3,-1
 220 280 l 1,4,-1
 80 370 l 1,5,-1
 130 430 l 1,6,-1
 240 340 l 1,7,-1
 230 480 l 1,8,-1
 310 480 l 1,9,-1
 300 340 l 1,10,-1
 410 430 l 1,11,-1
 460 370 l 1,12,-1
 320 280 l 1,13,-1
 460 190 l 1,14,-1
 410 130 l 1,15,-1
 300 220 l 1,16,-1
 310 80 l 1,17,-1
 230 80 l 1,0,-1
EndSplineSet
EndChar

StartChar: numbersign
Encoding: 35 35 161
Width: 680
GlyphClass: 1
Flags: W
LayerCount: 2
Fore
SplineSet
120 0 m 1,0,-1
 160 200 l 1,1,-1
 40 200 l 1,2,-1
 60 280 l 1,3,-1
 180 280 l 1,4,-1
 220 480 l 1,5,-1
 100 480 l 1,6,-1
 120 560 l 1,7,-1
 240 560 l 1,8,-1
 280 760 l 1,9,-1
 360 760 l 1,10,-1
 320 560 l 1,11,-1
 440 560 l 1,12,-1
 480 760 l 1,13,-1
 560 760 l 1,14,-1
 520 560 l 1,15,-1
 640 560 l 1,16,-1
 620 480 l 1,17,-1
 500 480 l 1,18,-1
 460 280 l 1,19,-1
 580 280 l 1,20,-1
 560 200 l 1,21,-1
 440 200 l 1,22,-1
 400 0 l 1,23,-1
 320 0 l 1,24,-1
 360 200 l 1,25,-1
 240 200 l 1,26,-1
 200 0 l 1,27,-1
 120 0 l 1,0,-1
260 280 m 1,28,-1
 380 280 l 1,29,-1
 420 480 l 1,30,-1
 300 480 l 1,31,-1
 260 280 l 1,28,-1
EndSplineSet
EndChar

StartChar: slash
Encoding: 47 47 162
Width: 480
GlyphClass: 1
Flags: W
LayerCount: 2
Fore
SplineSet
40 -200 m 1,0,-1
 360 760 l 1,1,-1
 440 760 l 1,2,-1
 120 -200 l 1,3,-1
 40 -200 l 1,0,-1
EndSplineSet
EndChar

StartChar: backslash
Encoding: 92 92 163
Width: 480
GlyphClass: 1
Flags: W
LayerCount: 2
Fore
SplineSet
440 -200 m 1,0,-1
 360 -200 l 1,1,-1
 40 760 l 1,2,-1
 120 760 l 1,3,-1
 440 -200 l 1,0,-1
EndSplineSet
EndChar

StartChar: parenleft
Encoding: 40 40 164
Width: 480
GlyphClass: 1
Flags: W
LayerCount: 2
Fore
SplineSet
217 -116 m 128,-1,1
 161 -55 161 -55 120.5 37 c 128,-1,2
 80 129 80 129 80 240 c 2,3,-1
 80 320 l 2,4,5
 80 431 80 431 120.5 523.5 c 128,-1,6
 161 616 161 616 217 676 c 128,-1,7
 273 736 273 736 320 760 c 1,8,-1
 400 720 l 1,9,10
 348 694 348 694 294 644.5 c 128,-1,11
 240 595 240 595 200 512.5 c 128,-1,12
 160 430 160 430 160 320 c 2,13,-1
 160 240 l 2,14,15
 160 130 160 130 200 47.5 c 128,-1,16
 240 -35 240 -35 294 -84.5 c 128,-1,17
 348 -134 348 -134 400 -160 c 1,18,-1
 320 -200 l 1,19,0
 273 -177 273 -177 217 -116 c 128,-1,1
EndSplineSet
EndChar

StartChar: parenright
Encoding: 41 41 165
Width: 480
GlyphClass: 1
Flags: W
LayerCount: 2
Fore
SplineSet
186 -84.5 m 128,-1,1
 240 -35 240 -35 280 47.5 c 128,-1,2
 320 130 320 130 320 240 c 2,3,-1
 320 320 l 2,4,5
 320 430 320 430 280 512.5 c 128,-1,6
 240 595 240 595 186 644.5 c 128,-1,7
 132 694 132 694 80 720 c 1,8,-1
 160 760 l 1,9,10
 207 736 207 736 263 676 c 128,-1,11
 319 616 319 616 359.5 523.5 c 128,-1,12
 400 431 400 431 400 320 c 2,13,-1
 400 240 l 2,14,15
 400 129 400 129 359.5 37 c 128,-1,16
 319 -55 319 -55 263 -116 c 128,-1,17
 207 -177 207 -177 160 -200 c 1,18,-1
 80 -160 l 1,19,0
 132 -134 132 -134 186 -84.5 c 128,-1,1
EndSplineSet
EndChar

StartChar: braceleft
Encoding: 123 123 166
Width: 560
GlyphClass: 1
Flags: W
LayerCount: 2
Fore
SplineSet
304.5 -185 m 128,-1,1
 270 -170 270 -170 255 -135.5 c 128,-1,2
 240 -101 240 -101 240 -40 c 2,3,-1
 240 120 l 2,4,5
 240 177 240 177 216 208.5 c 128,-1,6
 192 240 192 240 160 240 c 2,7,-1
 80 240 l 1,8,-1
 80 320 l 1,9,-1
 160 320 l 2,10,11
 192 320 192 320 216 351.5 c 128,-1,12
 240 383 240 383 240 440 c 2,13,-1
 240 600 l 2,14,15
 241 658 241 658 256.5 692 c 128,-1,16
 272 726 272 726 306 741.5 c 128,-1,17
 340 757 340 757 400 760 c 2,18,-1
 480 760 l 1,19,-1
 480 690 l 1,20,-1
 400 690 l 1,21,22
 357 686 357 686 339.5 668.5 c 128,-1,23
 322 651 322 651 320 610 c 2,24,-1
 320 440 l 2,25,26
 320 381 320 381 299.5 340 c 128,-1,27
 279 299 279 299 250 280 c 1,28,29
 279 261 279 261 299.5 220 c 128,-1,30
 320 179 320 179 320 120 c 2,31,-1
 320 -50 l 2,32,33
 320 -95 320 -95 337.5 -112.5 c 128,-1,34
 355 -130 355 -130 400 -130 c 2,35,-1
 480 -130 l 1,36,-1
 480 -200 l 1,37,-1
 400 -200 l 2,38,0
 339 -200 339 -200 304.5 -185 c 128,-1,1
EndSplineSet
EndChar

StartChar: braceright
Encoding: 125 125 167
Width: 560
GlyphClass: 1
Flags: W
LayerCount: 2
Fore
SplineSet
80 -200 m 1,0,-1
 80 -130 l 1,1,-1
 160 -130 l 2,2,3
 205 -130 205 -130 222.5 -112.5 c 128,-1,4
 240 -95 240 -95 240 -50 c 2,5,-1
 240 120 l 2,6,7
 240 179 240 179 260.5 220 c 128,-1,8
 281 261 281 261 310 280 c 1,9,10
 281 299 281 299 260.5 340 c 128,-1,11
 240 381 240 381 240 440 c 2,12,-1
 240 610 l 2,13,14
 239 651 239 651 221.5 668.5 c 128,-1,15
 204 686 204 686 160 690 c 1,16,-1
 80 690 l 1,17,-1
 80 760 l 1,18,-1
 160 760 l 2,19,20
 220 757 220 757 254 741.5 c 128,-1,21
 288 726 288 726 303.5 692 c 128,-1,22
 319 658 319 658 320 600 c 2,23,-1
 320 440 l 2,24,25
 320 383 320 383 344 351.5 c 128,-1,26
 368 320 368 320 400 320 c 2,27,-1
 480 320 l 1,28,-1
 480 240 l 1,29,-1
 400 240 l 2,30,31
 368 240 368 240 344 208.5 c 128,-1,32
 320 177 320 177 320 120 c 2,33,-1
 320 -40 l 2,34,35
 320 -101 320 -101 305 -135.5 c 128,-1,36
 290 -170 290 -170 255.5 -185 c 128,-1,37
 221 -200 221 -200 160 -200 c 2,38,-1
 80 -200 l 1,0,-1
EndSplineSet
EndChar

StartChar: bracketleft
Encoding: 91 91 168
Width: 560
GlyphClass: 1
Flags: W
LayerCount: 2
Fore
SplineSet
160 -200 m 1,0,-1
 160 760 l 1,1,-1
 480 760 l 1,2,-1
 480 690 l 1,3,-1
 240 690 l 1,4,-1
 240 -130 l 1,5,-1
 480 -130 l 1,6,-1
 480 -200 l 1,7,-1
 160 -200 l 1,0,-1
EndSplineSet
EndChar

StartChar: bracketright
Encoding: 93 93 169
Width: 560
GlyphClass: 1
Flags: W
LayerCount: 2
Fore
SplineSet
400 -200 m 1,0,-1
 80 -200 l 1,1,-1
 80 -130 l 1,2,-1
 320 -130 l 1,3,-1
 320 690 l 1,4,-1
 80 690 l 1,5,-1
 80 760 l 1,6,-1
 400 760 l 1,7,-1
 400 -200 l 1,0,-1
EndSplineSet
EndChar

StartChar: hyphen
Encoding: 45 45 170
Width: 560
GlyphClass: 1
Flags: W
LayerCount: 2
Fore
SplineSet
80 240 m 1,0,-1
 80 320 l 1,1,-1
 480 320 l 1,2,-1
 480 240 l 1,3,-1
 80 240 l 1,0,-1
EndSplineSet
EndChar

StartChar: endash
Encoding: 8211 8211 171
Width: 560
GlyphClass: 1
Flags: W
LayerCount: 2
Fore
SplineSet
80 320 m 1,0,-1
 480 320 l 1,1,-1
 480 240 l 1,2,-1
 80 240 l 1,3,-1
 80 320 l 1,0,-1
EndSplineSet
EndChar

StartChar: emdash
Encoding: 8212 8212 172
Width: 960
GlyphClass: 1
Flags: W
LayerCount: 2
Fore
SplineSet
80 240 m 1,0,-1
 80 320 l 1,1,-1
 880 320 l 1,2,-1
 880 240 l 1,3,-1
 80 240 l 1,0,-1
EndSplineSet
EndChar

StartChar: underscore
Encoding: 95 95 173
Width: 640
GlyphClass: 1
Flags: W
LayerCount: 2
Fore
SplineSet
80 -130 m 1,0,-1
 560 -130 l 1,1,-1
 560 -200 l 1,2,-1
 80 -200 l 1,3,-1
 80 -130 l 1,0,-1
EndSplineSet
EndChar

StartChar: quotesinglbase
Encoding: 8218 8218 174
Width: 300
GlyphClass: 1
Flags: W
LayerCount: 2
Fore
SplineSet
136 -106.5 m 128,-1,1
 153 -83 153 -83 150 -50 c 1,2,3
 121 -50 121 -50 100.5 -29.5 c 128,-1,4
 80 -9 80 -9 80 20 c 256,5,6
 80 49 80 49 100.5 69.5 c 128,-1,7
 121 90 121 90 150 90 c 256,8,9
 179 90 179 90 199.5 69.5 c 128,-1,10
 220 49 220 49 220 20 c 0,11,12
 220 -21 220 -21 208.5 -71.5 c 128,-1,13
 197 -122 197 -122 166 -161 c 128,-1,14
 135 -200 135 -200 80 -200 c 1,15,-1
 80 -130 l 1,16,0
 119 -130 119 -130 136 -106.5 c 128,-1,1
EndSplineSet
EndChar

StartChar: quotedblleft
Encoding: 8220 8220 176
Width: 520
GlyphClass: 1
Flags: W
LayerCount: 2
Fore
SplineSet
164 666.5 m 128,-1,1
 147 643 147 643 150 610 c 1,2,3
 179 610 179 610 199.5 589.5 c 128,-1,4
 220 569 220 569 220 540 c 256,5,6
 220 511 220 511 199.5 490.5 c 128,-1,7
 179 470 179 470 150 470 c 256,8,9
 121 470 121 470 100.5 490.5 c 128,-1,10
 80 511 80 511 80 540 c 0,11,12
 80 581 80 581 91.5 631.5 c 128,-1,13
 103 682 103 682 134 721 c 128,-1,14
 165 760 165 760 220 760 c 1,15,-1
 220 690 l 1,16,0
 181 690 181 690 164 666.5 c 128,-1,1
384 666.5 m 128,-1,18
 367 643 367 643 370 610 c 1,19,20
 399 610 399 610 419.5 589.5 c 128,-1,21
 440 569 440 569 440 540 c 256,22,23
 440 511 440 511 419.5 490.5 c 128,-1,24
 399 470 399 470 370 470 c 256,25,26
 341 470 341 470 320.5 490.5 c 128,-1,27
 300 511 300 511 300 540 c 0,28,29
 300 581 300 581 311.5 631.5 c 128,-1,30
 323 682 323 682 354 721 c 128,-1,31
 385 760 385 760 440 760 c 1,32,-1
 440 690 l 1,33,17
 401 690 401 690 384 666.5 c 128,-1,18
EndSplineSet
EndChar

StartChar: quoteleft
Encoding: 8216 8216 178
Width: 300
GlyphClass: 1
Flags: W
LayerCount: 2
Fore
SplineSet
164 666.5 m 128,-1,1
 147 643 147 643 150 610 c 1,2,3
 179 610 179 610 199.5 589.5 c 128,-1,4
 220 569 220 569 220 540 c 256,5,6
 220 511 220 511 199.5 490.5 c 128,-1,7
 179 470 179 470 150 470 c 256,8,9
 121 470 121 470 100.5 490.5 c 128,-1,10
 80 511 80 511 80 540 c 0,11,12
 80 581 80 581 91.5 631.5 c 128,-1,13
 103 682 103 682 134 721 c 128,-1,14
 165 760 165 760 220 760 c 1,15,-1
 220 690 l 1,16,0
 181 690 181 690 164 666.5 c 128,-1,1
EndSplineSet
EndChar

StartChar: guillemotright
Encoding: 187 187 181
Width: 880
GlyphClass: 1
Flags: W
LayerCount: 2
Fore
SplineSet
80 -10 m 1,0,-1
 80 70 l 1,1,-1
 380 280 l 1,2,-1
 80 490 l 1,3,-1
 80 570 l 1,4,-1
 480 310 l 1,5,-1
 480 250 l 1,6,-1
 80 -10 l 1,0,-1
400 -10 m 1,7,-1
 400 70 l 1,8,-1
 700 280 l 1,9,-1
 400 490 l 1,10,-1
 400 570 l 1,11,-1
 800 310 l 1,12,-1
 800 250 l 1,13,-1
 400 -10 l 1,7,-1
EndSplineSet
EndChar

StartChar: guilsinglleft
Encoding: 8249 8249 182
Width: 560
GlyphClass: 1
Flags: W
LayerCount: 2
Fore
SplineSet
480 -10 m 1,0,-1
 80 250 l 1,1,-1
 80 310 l 1,2,-1
 480 570 l 1,3,-1
 480 490 l 1,4,-1
 180 280 l 1,5,-1
 480 70 l 1,6,-1
 480 -10 l 1,0,-1
EndSplineSet
EndChar

StartChar: guilsinglright
Encoding: 8250 8250 183
Width: 560
GlyphClass: 1
Flags: W
LayerCount: 2
Fore
SplineSet
80 -10 m 1,0,-1
 80 70 l 1,1,-1
 380 280 l 1,2,-1
 80 490 l 1,3,-1
 80 570 l 1,4,-1
 480 310 l 1,5,-1
 480 250 l 1,6,-1
 80 -10 l 1,0,-1
EndSplineSet
EndChar

StartChar: quotesingle
Encoding: 39 39 185
Width: 400
GlyphClass: 1
Flags: W
LayerCount: 2
Fore
SplineSet
170 480 m 1,0,-1
 160 760 l 1,1,-1
 240 760 l 1,2,-1
 230 480 l 1,3,-1
 170 480 l 1,0,-1
EndSplineSet
EndChar

StartChar: hyphen_greater.liga
Encoding: 65542 -1 186
Width: 950
GlyphClass: 3
Flags: W
LayerCount: 2
Fore
SplineSet
470 570 m 1,0,-1
 870 310 l 1,1,-1
 870 250 l 1,2,-1
 470 -10 l 1,3,-1
 470 240 l 1,4,-1
 80 240 l 1,5,-1
 80 320 l 1,6,-1
 470 320 l 1,7,-1
 470 570 l 1,0,-1
510 98 m 1,8,-1
 770 280 l 1,9,-1
 510 462 l 1,10,-1
 510 98 l 1,8,-1
EndSplineSet
Ligature2: "'liga' Standard Ligatures lookup 1 subtable" hyphen greater
EndChar

StartChar: slash_slash.liga
Encoding: 65544 -1 188
Width: 800
GlyphClass: 3
Flags: W
LayerCount: 2
Fore
SplineSet
360 760 m 1,0,-1
 440 760 l 1,1,-1
 120 -200 l 1,2,-1
 40 -200 l 1,3,-1
 360 760 l 1,0,-1
680 760 m 1,4,-1
 760 760 l 1,5,-1
 440 -200 l 1,6,-1
 360 -200 l 1,7,-1
 680 760 l 1,4,-1
EndSplineSet
Ligature2: "'liga' Standard Ligatures lookup 1 subtable" slash slash
EndChar

StartChar: cent
Encoding: 162 162 189
Width: 560
GlyphClass: 1
Flags: W
LayerCount: 2
Fore
SplineSet
169.5 15.5 m 128,-1,1
 130 41 130 41 105 87 c 128,-1,2
 80 133 80 133 80 190 c 2,3,-1
 80 370 l 2,4,5
 80 427 80 427 105 473 c 128,-1,6
 130 519 130 519 169.5 544.5 c 128,-1,7
 209 570 209 570 250 570 c 1,8,-1
 250 680 l 1,9,-1
 320 680 l 1,10,-1
 320 570 l 1,11,12
 359 570 359 570 396.5 546 c 128,-1,13
 434 522 434 522 457 483 c 128,-1,14
 480 444 480 444 480 400 c 1,15,-1
 400 400 l 1,16,17
 400 430 400 430 375 455 c 128,-1,18
 350 480 350 480 320 480 c 1,19,-1
 320 60 l 1,20,21
 355 60 355 60 377.5 82.5 c 128,-1,22
 400 105 400 105 400 160 c 1,23,-1
 480 160 l 1,24,25
 480 116 480 116 457 77 c 128,-1,26
 434 38 434 38 396.5 14 c 128,-1,27
 359 -10 359 -10 320 -10 c 1,28,-1
 320 -120 l 1,29,-1
 250 -120 l 1,30,-1
 250 -10 l 1,31,0
 209 -10 209 -10 169.5 15.5 c 128,-1,1
208 467 m 128,-1,33
 187 454 187 454 173.5 431.5 c 128,-1,34
 160 409 160 409 160 380 c 2,35,-1
 160 180 l 2,36,37
 160 142 160 142 173.5 115 c 128,-1,38
 187 88 187 88 208 74 c 128,-1,39
 229 60 229 60 250 60 c 1,40,-1
 250 480 l 1,41,32
 229 480 229 480 208 467 c 128,-1,33
EndSplineSet
EndChar

StartChar: currency
Encoding: 164 164 190
Width: 560
GlyphClass: 1
Flags: W
LayerCount: 2
Fore
SplineSet
90 150 m 1,0,-1
 170 230 l 1,1,2
 160 261 160 261 160 280 c 256,3,4
 160 299 160 299 170 330 c 1,5,-1
 90 410 l 1,6,-1
 150 470 l 1,7,-1
 230 390 l 1,8,9
 261 400 261 400 280 400 c 256,10,11
 299 400 299 400 330 390 c 1,12,-1
 410 470 l 1,13,-1
 470 410 l 1,14,-1
 390 330 l 1,15,16
 400 299 400 299 400 280 c 256,17,18
 400 261 400 261 390 230 c 1,19,-1
 470 150 l 1,20,-1
 410 90 l 1,21,-1
 330 170 l 1,22,23
 299 160 299 160 280 160 c 256,24,25
 261 160 261 160 230 170 c 1,26,-1
 150 90 l 1,27,-1
 90 150 l 1,0,-1
322.5 237.5 m 128,-1,29
 340 255 340 255 340 280 c 256,30,31
 340 305 340 305 322.5 322.5 c 128,-1,32
 305 340 305 340 280 340 c 256,33,34
 255 340 255 340 237.5 322.5 c 128,-1,35
 220 305 220 305 220 280 c 256,36,37
 220 255 220 255 237.5 237.5 c 128,-1,38
 255 220 255 220 280 220 c 256,39,28
 305 220 305 220 322.5 237.5 c 128,-1,29
EndSplineSet
EndChar

StartChar: dollar
Encoding: 36 36 191
Width: 600
GlyphClass: 1
Flags: W
LayerCount: 2
Fore
SplineSet
134.5 40.5 m 128,-1,1
 80 91 80 91 80 180 c 1,2,-1
 160 180 l 1,3,4
 160 60 160 60 280 60 c 1,5,-1
 280 300 l 1,6,7
 190 300 190 300 135 355 c 128,-1,8
 80 410 80 410 80 500 c 0,9,10
 80 589 80 589 134.5 639.5 c 128,-1,11
 189 690 189 690 280 690 c 1,12,-1
 280 760 l 1,13,-1
 360 760 l 1,14,-1
 360 690 l 1,15,16
 451 690 451 690 505.5 639.5 c 128,-1,17
 560 589 560 589 560 500 c 1,18,-1
 480 500 l 1,19,20
 480 620 480 620 360 620 c 1,21,-1
 360 390 l 1,22,23
 418 390 418 390 463.5 361 c 128,-1,24
 509 332 509 332 534.5 283.5 c 128,-1,25
 560 235 560 235 560 180 c 0,26,27
 560 91 560 91 505.5 40.5 c 128,-1,28
 451 -10 451 -10 360 -10 c 1,29,-1
 360 -80 l 1,30,-1
 280 -80 l 1,31,-1
 280 -10 l 1,32,0
 189 -10 189 -10 134.5 40.5 c 128,-1,1
160 500 m 0,34,35
 160 441 160 441 189.5 415.5 c 128,-1,36
 219 390 219 390 280 390 c 1,37,-1
 280 620 l 1,38,33
 160 620 160 620 160 500 c 0,34,35
480 180 m 256,40,41
 480 300 480 300 360 300 c 1,42,-1
 360 60 l 1,43,39
 480 60 480 60 480 180 c 256,40,41
EndSplineSet
EndChar

StartChar: Euro
Encoding: 8364 8364 192
Width: 640
GlyphClass: 1
Flags: W
LayerCount: 2
Fore
SplineSet
240 240 m 1,0,-1
 410 240 l 1,1,-1
 410 300 l 1,2,-1
 240 300 l 1,3,-1
 240 380 l 1,4,-1
 410 380 l 1,5,-1
 410 440 l 1,6,-1
 240 440 l 1,7,-1
 240 500 l 2,8,9
 240 620 240 620 360 620 c 0,10,11
 423 620 423 620 451.5 599 c 128,-1,12
 480 578 480 578 480 520 c 1,13,-1
 560 520 l 1,14,15
 560 607 560 607 507 648.5 c 128,-1,16
 454 690 454 690 360 690 c 0,17,18
 270 690 270 690 215 635 c 128,-1,19
 160 580 160 580 160 490 c 2,20,-1
 160 440 l 1,21,-1
 80 440 l 1,22,-1
 80 380 l 1,23,-1
 160 380 l 1,24,-1
 160 300 l 1,25,-1
 80 300 l 1,26,-1
 80 240 l 1,27,-1
 160 240 l 1,28,-1
 160 190 l 2,29,30
 160 100 160 100 215 45 c 128,-1,31
 270 -10 270 -10 360 -10 c 0,32,33
 454 -10 454 -10 507 31.5 c 128,-1,34
 560 73 560 73 560 160 c 1,35,-1
 480 160 l 1,36,37
 480 103 480 103 451.5 81.5 c 128,-1,38
 423 60 423 60 360 60 c 0,39,40
 240 60 240 60 240 180 c 2,41,-1
 240 240 l 1,0,-1
EndSplineSet
EndChar

StartChar: sterling
Encoding: 163 163 193
Width: 640
GlyphClass: 1
Flags: W
LayerCount: 2
Fore
SplineSet
141.5 129.5 m 128,-1,1
 160 189 160 189 160 300 c 1,2,-1
 80 300 l 1,3,-1
 80 380 l 1,4,-1
 160 380 l 1,5,-1
 160 490 l 2,6,7
 160 580 160 580 215 635 c 128,-1,8
 270 690 270 690 360 690 c 0,9,10
 454 690 454 690 507 648.5 c 128,-1,11
 560 607 560 607 560 520 c 1,12,-1
 480 520 l 1,13,14
 480 578 480 578 451.5 599 c 128,-1,15
 423 620 423 620 360 620 c 0,16,17
 240 620 240 620 240 500 c 2,18,-1
 240 380 l 1,19,-1
 400 380 l 1,20,-1
 400 300 l 1,21,-1
 240 300 l 1,22,23
 240 189 240 189 221.5 129.5 c 128,-1,24
 203 70 203 70 160 70 c 1,25,-1
 560 70 l 1,26,-1
 560 0 l 1,27,-1
 80 0 l 1,28,-1
 80 70 l 1,29,0
 123 70 123 70 141.5 129.5 c 128,-1,1
EndSplineSet
EndChar

StartChar: yen
Encoding: 165 165 194
Width: 600
GlyphClass: 1
Flags: W
LayerCount: 2
Fore
SplineSet
280 80 m 1,0,-1
 160 80 l 1,1,-1
 160 140 l 1,2,-1
 280 140 l 1,3,-1
 280 200 l 1,4,-1
 160 200 l 1,5,-1
 160 260 l 1,6,-1
 280 260 l 1,7,-1
 280 310 l 1,8,-1
 279 312 l 1,9,10
 224 370 224 370 152 477 c 128,-1,11
 80 584 80 584 80 680 c 1,12,-1
 160 680 l 1,13,14
 160 601 160 601 206.5 518.5 c 128,-1,15
 253 436 253 436 320 370 c 1,16,17
 387 436 387 436 433.5 518.5 c 128,-1,18
 480 601 480 601 480 680 c 1,19,-1
 560 680 l 1,20,21
 560 601 560 601 502 501 c 128,-1,22
 444 401 444 401 360 310 c 1,23,-1
 360 260 l 1,24,-1
 480 260 l 1,25,-1
 480 200 l 1,26,-1
 360 200 l 1,27,-1
 360 140 l 1,28,-1
 480 140 l 1,29,-1
 480 80 l 1,30,-1
 360 80 l 1,31,-1
 360 0 l 1,32,-1
 280 0 l 1,33,-1
 280 80 l 1,0,-1
EndSplineSet
EndChar

StartChar: plus
Encoding: 43 43 195
Width: 640
GlyphClass: 1
Flags: W
LayerCount: 2
Fore
SplineSet
280 40 m 1,0,-1
 280 240 l 1,1,-1
 80 240 l 1,2,-1
 80 320 l 1,3,-1
 280 320 l 1,4,-1
 280 520 l 1,5,-1
 360 520 l 1,6,-1
 360 320 l 1,7,-1
 560 320 l 1,8,-1
 560 240 l 1,9,-1
 360 240 l 1,10,-1
 360 40 l 1,11,-1
 280 40 l 1,0,-1
EndSplineSet
EndChar

StartChar: multiply
Encoding: 215 215 197
Width: 560
GlyphClass: 1
Flags: W
LayerCount: 2
Fore
SplineSet
420 76 m 1,0,-1
 278 218 l 1,1,-1
 137 76 l 1,2,-1
 80 133 l 1,3,-1
 222 274 l 1,4,-1
 80 416 l 1,5,-1
 137 472 l 1,6,-1
 278 331 l 1,7,-1
 420 472 l 1,8,-1
 476 416 l 1,9,-1
 335 274 l 1,10,-1
 476 133 l 1,11,-1
 420 76 l 1,0,-1
EndSplineSet
EndChar

StartChar: divide
Encoding: 247 247 198
Width: 640
GlyphClass: 2
Flags: W
AnchorPoint: "Anchor-0" 320 460 basechar 0
LayerCount: 2
Fore
SplineSet
277.5 367.5 m 128,-1,1
 260 385 260 385 260 410 c 256,2,3
 260 435 260 435 277.5 452.5 c 128,-1,4
 295 470 295 470 320 470 c 256,5,6
 345 470 345 470 362.5 452.5 c 128,-1,7
 380 435 380 435 380 410 c 256,8,9
 380 385 380 385 362.5 367.5 c 128,-1,10
 345 350 345 350 320 350 c 256,11,0
 295 350 295 350 277.5 367.5 c 128,-1,1
80 320 m 1,12,-1
 560 320 l 1,13,-1
 560 240 l 1,14,-1
 80 240 l 1,15,-1
 80 320 l 1,12,-1
277.5 7.5 m 128,-1,17
 260 25 260 25 260 50 c 256,18,19
 260 75 260 75 277.5 92.5 c 128,-1,20
 295 110 295 110 320 110 c 256,21,22
 345 110 345 110 362.5 92.5 c 128,-1,23
 380 75 380 75 380 50 c 256,24,25
 380 25 380 25 362.5 7.5 c 128,-1,26
 345 -10 345 -10 320 -10 c 256,27,16
 295 -10 295 -10 277.5 7.5 c 128,-1,17
EndSplineSet
EndChar

StartChar: equal
Encoding: 61 61 199
Width: 640
GlyphClass: 1
Flags: W
LayerCount: 2
Fore
SplineSet
80 360 m 1,0,-1
 80 440 l 1,1,-1
 560 440 l 1,2,-1
 560 360 l 1,3,-1
 80 360 l 1,0,-1
80 120 m 1,4,-1
 80 200 l 1,5,-1
 560 200 l 1,6,-1
 560 120 l 1,7,-1
 80 120 l 1,4,-1
EndSplineSet
EndChar

StartChar: notequal
Encoding: 8800 8800 200
Width: 640
GlyphClass: 1
Flags: W
LayerCount: 2
Fore
SplineSet
160 0 m 1,0,-1
 210 120 l 1,1,-1
 80 120 l 1,2,-1
 80 200 l 1,3,-1
 250 200 l 1,4,-1
 320 360 l 1,5,-1
 80 360 l 1,6,-1
 80 440 l 1,7,-1
 350 440 l 1,8,-1
 400 560 l 1,9,-1
 480 560 l 1,10,-1
 430 440 l 1,11,-1
 560 440 l 1,12,-1
 560 360 l 1,13,-1
 400 360 l 1,14,-1
 330 200 l 1,15,-1
 560 200 l 1,16,-1
 560 120 l 1,17,-1
 291 120 l 1,18,-1
 240 0 l 1,19,-1
 160 0 l 1,0,-1
EndSplineSet
EndChar

StartChar: greaterequal
Encoding: 8805 8805 203
Width: 560
GlyphClass: 1
Flags: W
LayerCount: 2
Fore
SplineSet
80 570 m 1,0,-1
 80 490 l 1,1,-1
 380 360 l 1,2,-1
 80 230 l 1,3,-1
 80 150 l 1,4,-1
 480 330 l 1,5,-1
 480 390 l 1,6,-1
 80 570 l 1,0,-1
80 70 m 1,7,-1
 480 70 l 1,8,-1
 480 0 l 1,9,-1
 80 0 l 1,10,-1
 80 70 l 1,7,-1
EndSplineSet
EndChar

StartChar: lessequal
Encoding: 8804 8804 204
Width: 560
GlyphClass: 1
Flags: W
LayerCount: 2
Fore
SplineSet
480 570 m 1,0,-1
 80 390 l 1,1,-1
 80 330 l 1,2,-1
 480 150 l 1,3,-1
 480 230 l 1,4,-1
 180 360 l 1,5,-1
 480 490 l 1,6,-1
 480 570 l 1,0,-1
480 70 m 1,7,-1
 480 0 l 1,8,-1
 80 0 l 1,9,-1
 80 70 l 1,10,-1
 480 70 l 1,7,-1
EndSplineSet
EndChar

StartChar: plusminus
Encoding: 177 177 205
Width: 600
GlyphClass: 1
Flags: W
LayerCount: 2
Fore
SplineSet
280 160 m 1,0,-1
 280 320 l 1,1,-1
 80 320 l 1,2,-1
 80 400 l 1,3,-1
 280 400 l 1,4,-1
 280 560 l 1,5,-1
 360 560 l 1,6,-1
 360 400 l 1,7,-1
 560 400 l 1,8,-1
 560 320 l 1,9,-1
 360 320 l 1,10,-1
 360 160 l 1,11,-1
 280 160 l 1,0,-1
80 0 m 1,12,-1
 80 80 l 1,13,-1
 560 80 l 1,14,-1
 560 0 l 1,15,-1
 80 0 l 1,12,-1
EndSplineSet
EndChar

StartChar: asciitilde
Encoding: 126 126 207
Width: 640
GlyphClass: 1
Flags: W
LayerCount: 2
Fore
SplineSet
262.5 232 m 128,-1,1
 274 224 274 224 293 206 c 0,2,3
 322 179 322 179 345.5 164.5 c 128,-1,4
 369 150 369 150 400 150 c 0,5,6
 439 150 439 150 476 175.5 c 128,-1,7
 513 201 513 201 536.5 241 c 128,-1,8
 560 281 560 281 560 320 c 1,9,-1
 480 320 l 1,10,11
 480 290 480 290 455 265 c 128,-1,12
 430 240 430 240 400 240 c 0,13,14
 389 240 389 240 377.5 248 c 128,-1,15
 366 256 366 256 347 274 c 0,16,17
 318 301 318 301 294.5 315.5 c 128,-1,18
 271 330 271 330 240 330 c 0,19,20
 201 330 201 330 163.5 304.5 c 128,-1,21
 126 279 126 279 103 239 c 128,-1,22
 80 199 80 199 80 160 c 1,23,-1
 160 160 l 1,24,25
 160 190 160 190 185 215 c 128,-1,26
 210 240 210 240 240 240 c 0,27,0
 251 240 251 240 262.5 232 c 128,-1,1
EndSplineSet
EndChar

StartChar: logicalnot
Encoding: 172 172 208
Width: 640
GlyphClass: 1
Flags: W
LayerCount: 2
Fore
SplineSet
480 80 m 1,0,-1
 480 240 l 1,1,-1
 80 240 l 1,2,-1
 80 320 l 1,3,-1
 560 320 l 1,4,-1
 560 80 l 1,5,-1
 480 80 l 1,0,-1
EndSplineSet
EndChar

StartChar: asciicircum
Encoding: 94 94 209
Width: 560
GlyphClass: 1
Flags: W
LayerCount: 2
Fore
SplineSet
80 280 m 1,0,-1
 240 760 l 1,1,-1
 320 760 l 1,2,-1
 480 280 l 1,3,-1
 400 280 l 1,4,-1
 280 640 l 1,5,-1
 160 280 l 1,6,-1
 80 280 l 1,0,-1
EndSplineSet
EndChar

StartChar: emptyset
Encoding: 8709 8709 210
Width: 720
GlyphClass: 1
Flags: W
LayerCount: 2
Fore
SplineSet
568 476 m 1,0,1
 602 436 602 436 621 386 c 128,-1,2
 640 336 640 336 640 280 c 0,3,4
 640 201 640 201 603.5 134.5 c 128,-1,5
 567 68 567 68 502.5 29 c 128,-1,6
 438 -10 438 -10 360 -10 c 0,7,8
 269 -10 269 -10 197 43 c 1,9,-1
 160 0 l 1,10,-1
 80 0 l 1,11,-1
 152 84 l 1,12,13
 118 124 118 124 99 174 c 128,-1,14
 80 224 80 224 80 280 c 0,15,16
 80 359 80 359 116.5 425.5 c 128,-1,17
 153 492 153 492 217.5 531 c 128,-1,18
 282 570 282 570 360 570 c 0,19,20
 451 570 451 570 523 517 c 1,21,-1
 560 560 l 1,22,-1
 640 560 l 1,23,-1
 568 476 l 1,0,1
202 142 m 1,25,-1
 475 460 l 1,26,27
 421 500 421 500 350 500 c 0,28,29
 298 500 298 500 254.5 470.5 c 128,-1,30
 211 441 211 441 185.5 390.5 c 128,-1,31
 160 340 160 340 160 280 c 0,32,24
 160 203 160 203 202 142 c 1,25,-1
518 417 m 1,34,-1
 244 98 l 1,35,36
 292 60 292 60 350 60 c 0,37,38
 411 60 411 60 459 89.5 c 128,-1,39
 507 119 507 119 533.5 169.5 c 128,-1,40
 560 220 560 220 560 280 c 0,41,33
 560 359 560 359 518 417 c 1,34,-1
EndSplineSet
EndChar

StartChar: infinity
Encoding: 8734 8734 211
Width: 800
GlyphClass: 1
Flags: W
LayerCount: 2
Fore
SplineSet
160 98.5 m 128,-1,1
 123 127 123 127 101.5 175 c 128,-1,2
 80 223 80 223 80 280 c 256,3,4
 80 337 80 337 101.5 385.5 c 128,-1,5
 123 434 123 434 159.5 462 c 128,-1,6
 196 490 196 490 240 490 c 0,7,8
 299 490 299 490 340 443.5 c 128,-1,9
 381 397 381 397 400 330 c 1,10,11
 419 397 419 397 460 443.5 c 128,-1,12
 501 490 501 490 560 490 c 0,13,14
 604 490 604 490 640.5 462 c 128,-1,15
 677 434 677 434 698.5 385.5 c 128,-1,16
 720 337 720 337 720 280 c 256,17,18
 720 223 720 223 698.5 175 c 128,-1,19
 677 127 677 127 640 98.5 c 128,-1,20
 603 70 603 70 560 70 c 0,21,22
 501 70 501 70 460 116.5 c 128,-1,23
 419 163 419 163 400 230 c 1,24,25
 381 163 381 163 340 116.5 c 128,-1,26
 299 70 299 70 240 70 c 0,27,0
 197 70 197 70 160 98.5 c 128,-1,1
310.5 180.5 m 128,-1,29
 342 221 342 221 360 280 c 1,30,31
 342 339 342 339 310.5 379.5 c 128,-1,32
 279 420 279 420 240 420 c 0,33,34
 219 420 219 420 200.5 399 c 128,-1,35
 182 378 182 378 171 345.5 c 128,-1,36
 160 313 160 313 160 280 c 256,37,38
 160 247 160 247 171 214.5 c 128,-1,39
 182 182 182 182 200.5 161 c 128,-1,40
 219 140 219 140 240 140 c 0,41,28
 279 140 279 140 310.5 180.5 c 128,-1,29
599.5 161 m 128,-1,43
 618 182 618 182 629 214.5 c 128,-1,44
 640 247 640 247 640 280 c 256,45,46
 640 313 640 313 629 345.5 c 128,-1,47
 618 378 618 378 599.5 399 c 128,-1,48
 581 420 581 420 560 420 c 0,49,50
 521 420 521 420 489.5 379.5 c 128,-1,51
 458 339 458 339 440 280 c 1,52,53
 458 221 458 221 489.5 180.5 c 128,-1,54
 521 140 521 140 560 140 c 0,55,42
 581 140 581 140 599.5 161 c 128,-1,43
EndSplineSet
EndChar

StartChar: integral
Encoding: 8747 8747 212
Width: 560
GlyphClass: 1
Flags: W
LayerCount: 2
Fore
SplineSet
201.5 -74 m 128,-1,1
 240 -28 240 -28 240 40 c 2,2,-1
 240 510 l 2,3,4
 240 637 240 637 299.5 698.5 c 128,-1,5
 359 760 359 760 480 760 c 1,6,-1
 480 680 l 1,7,8
 396 680 396 680 358 632.5 c 128,-1,9
 320 585 320 585 320 510 c 2,10,-1
 320 40 l 2,11,12
 320 -86 320 -86 261 -143 c 128,-1,13
 202 -200 202 -200 80 -200 c 1,14,-1
 80 -120 l 1,15,0
 163 -120 163 -120 201.5 -74 c 128,-1,1
EndSplineSet
EndChar

StartChar: product
Encoding: 8719 8719 213
Width: 720
GlyphClass: 1
Flags: W
LayerCount: 2
Fore
SplineSet
160 0 m 1,0,-1
 160 690 l 1,1,-1
 80 690 l 1,2,-1
 80 760 l 1,3,-1
 640 760 l 1,4,-1
 640 690 l 1,5,-1
 560 690 l 1,6,-1
 560 0 l 1,7,-1
 480 0 l 1,8,-1
 480 690 l 1,9,-1
 240 690 l 1,10,-1
 240 0 l 1,11,-1
 160 0 l 1,0,-1
EndSplineSet
EndChar

StartChar: summation
Encoding: 8721 8721 214
Width: 640
GlyphClass: 1
Flags: W
LayerCount: 2
Fore
SplineSet
80 -200 m 1,0,-1
 80 -130 l 1,1,-1
 320 280 l 1,2,-1
 80 690 l 1,3,-1
 80 760 l 1,4,-1
 560 760 l 1,5,-1
 560 690 l 1,6,-1
 160 690 l 1,7,-1
 400 280 l 1,8,-1
 160 -130 l 1,9,-1
 560 -130 l 1,10,-1
 560 -200 l 1,11,-1
 80 -200 l 1,0,-1
EndSplineSet
EndChar

StartChar: radical
Encoding: 8730 8730 215
Width: 600
GlyphClass: 1
Flags: W
LayerCount: 2
Fore
SplineSet
201 170 m 128,-1,1
 180 240 180 240 160 240 c 2,2,-1
 80 240 l 1,3,-1
 80 320 l 1,4,-1
 160 320 l 2,5,6
 199 320 199 320 230.5 256 c 128,-1,7
 262 192 262 192 280 100 c 1,8,9
 334 376 334 376 407.5 568 c 128,-1,10
 481 760 481 760 560 760 c 1,11,-1
 560 690 l 1,12,13
 521 690 521 690 455 489.5 c 128,-1,14
 389 289 389 289 320 0 c 1,15,-1
 240 0 l 1,16,0
 222 100 222 100 201 170 c 128,-1,1
EndSplineSet
EndChar

StartChar: partialdiff
Encoding: 8706 8706 216
Width: 660
GlyphClass: 1
Flags: W
LayerCount: 2
Fore
SplineSet
125 62.5 m 128,-1,1
 84 112 84 112 84 181 c 0,2,3
 84 210 84 210 91 237 c 2,4,-1
 111 315 l 2,5,6
 128 387 128 387 177.5 427.5 c 128,-1,7
 227 468 227 468 295 468 c 0,8,9
 325 468 325 468 353 461 c 0,10,11
 372 457 372 457 396.5 436 c 128,-1,12
 421 415 421 415 436.5 389 c 128,-1,13
 452 363 452 363 448 345 c 1,14,-1
 495 540 l 2,15,16
 501 563 501 563 501 582 c 0,17,18
 501 663 501 663 408 685 c 0,19,20
 373 693 373 693 351 693 c 0,21,22
 318 693 318 693 297.5 675 c 128,-1,23
 277 657 277 657 267 616 c 1,24,-1
 189 636 l 1,25,26
 205 701 205 701 246 732 c 128,-1,27
 287 763 287 763 348 763 c 0,28,29
 379 763 379 763 424 753 c 0,30,31
 496 735 496 735 537 685.5 c 128,-1,32
 578 636 578 636 578 567 c 0,33,34
 578 538 578 538 571 511 c 2,35,-1
 480 142 l 2,36,37
 462 70 462 70 412.5 29 c 128,-1,38
 363 -12 363 -12 294 -12 c 0,39,40
 265 -12 265 -12 238 -5 c 0,41,0
 166 13 166 13 125 62.5 c 128,-1,1
297 57 m 0,43,44
 377 57 377 57 400 151 c 2,45,-1
 424 248 l 2,46,47
 427 260 427 260 427 274 c 0,48,49
 427 313 427 313 404 347.5 c 128,-1,50
 381 382 381 382 336 393 c 0,51,52
 312 399 312 399 293 399 c 0,53,54
 214 399 214 399 191 306 c 2,55,-1
 167 209 l 2,56,57
 161 187 161 187 161 166 c 0,58,59
 161 85 161 85 255 63 c 0,60,42
 278 57 278 57 297 57 c 0,43,44
EndSplineSet
EndChar

StartChar: percent
Encoding: 37 37 217
Width: 560
GlyphClass: 1
Flags: W
LayerCount: 2
Fore
SplineSet
80 0 m 1,0,-1
 400 760 l 1,1,-1
 480 760 l 1,2,-1
 160 0 l 1,3,-1
 80 0 l 1,0,-1
96.5 576.5 m 128,-1,5
 70 603 70 603 70 640 c 0,6,7
 70 678 70 678 96.5 704 c 128,-1,8
 123 730 123 730 160 730 c 0,9,10
 198 730 198 730 224 704 c 128,-1,11
 250 678 250 678 250 640 c 0,12,13
 250 603 250 603 224 576.5 c 128,-1,14
 198 550 198 550 160 550 c 0,15,4
 123 550 123 550 96.5 576.5 c 128,-1,5
336.5 56.5 m 128,-1,17
 310 83 310 83 310 120 c 0,18,19
 310 158 310 158 336.5 184 c 128,-1,20
 363 210 363 210 400 210 c 0,21,22
 438 210 438 210 464 184 c 128,-1,23
 490 158 490 158 490 120 c 0,24,25
 490 83 490 83 464 56.5 c 128,-1,26
 438 30 438 30 400 30 c 0,27,16
 363 30 363 30 336.5 56.5 c 128,-1,17
EndSplineSet
EndChar

StartChar: arrowup
Encoding: 8593 8593 219
Width: 560
GlyphClass: 1
Flags: W
LayerCount: 2
Fore
SplineSet
240 -200 m 1,0,-1
 240 480 l 1,1,-1
 80 480 l 1,2,-1
 280 780 l 1,3,-1
 480 480 l 1,4,-1
 320 480 l 1,5,-1
 320 -200 l 1,6,-1
 240 -200 l 1,0,-1
EndSplineSet
EndChar

StartChar: arrowright
Encoding: 8594 8594 221
Width: 1120
GlyphClass: 1
Flags: W
LayerCount: 2
Fore
SplineSet
80 320 m 1,0,-1
 760 320 l 1,1,-1
 760 480 l 1,2,-1
 1060 280 l 1,3,-1
 760 80 l 1,4,-1
 760 240 l 1,5,-1
 80 240 l 1,6,-1
 80 320 l 1,0,-1
EndSplineSet
EndChar

StartChar: arrowdown
Encoding: 8595 8595 223
Width: 560
GlyphClass: 1
Flags: W
LayerCount: 2
Fore
SplineSet
320 760 m 1,0,-1
 320 80 l 1,1,-1
 480 80 l 1,2,-1
 280 -220 l 1,3,-1
 80 80 l 1,4,-1
 240 80 l 1,5,-1
 240 760 l 1,6,-1
 320 760 l 1,0,-1
EndSplineSet
EndChar

StartChar: arrowleft
Encoding: 8592 8592 225
Width: 1120
GlyphClass: 1
Flags: W
LayerCount: 2
Fore
SplineSet
1040 240 m 1,0,-1
 360 240 l 1,1,-1
 360 80 l 1,2,-1
 60 280 l 1,3,-1
 360 480 l 1,4,-1
 360 320 l 1,5,-1
 1040 320 l 1,6,-1
 1040 240 l 1,0,-1
EndSplineSet
EndChar

StartChar: arrowboth
Encoding: 8596 8596 227
Width: 1120
GlyphClass: 1
Flags: W
LayerCount: 2
Fore
SplineSet
1060 280 m 1,0,-1
 760 80 l 1,1,-1
 760 240 l 1,2,-1
 360 240 l 1,3,-1
 360 80 l 1,4,-1
 60 280 l 1,5,-1
 360 480 l 1,6,-1
 360 320 l 1,7,-1
 760 320 l 1,8,-1
 760 480 l 1,9,-1
 1060 280 l 1,0,-1
EndSplineSet
EndChar

StartChar: arrowupdn
Encoding: 8597 8597 228
Width: 600
GlyphClass: 1
Flags: W
LayerCount: 2
Fore
SplineSet
280 -220 m 1,0,-1
 80 80 l 1,1,-1
 240 80 l 1,2,-1
 240 480 l 1,3,-1
 80 480 l 1,4,-1
 280 780 l 1,5,-1
 480 480 l 1,6,-1
 320 480 l 1,7,-1
 320 80 l 1,8,-1
 480 80 l 1,9,-1
 280 -220 l 1,0,-1
EndSplineSet
EndChar

StartChar: lozenge
Encoding: 9674 9674 229
Width: 560
GlyphClass: 1
Flags: W
LayerCount: 2
Fore
SplineSet
240 0 m 1,0,-1
 80 380 l 1,1,-1
 240 760 l 1,2,-1
 320 760 l 1,3,-1
 480 380 l 1,4,-1
 320 0 l 1,5,-1
 240 0 l 1,0,-1
280 80 m 1,6,-1
 400 380 l 1,7,-1
 280 680 l 1,8,-1
 160 380 l 1,9,-1
 280 80 l 1,6,-1
EndSplineSet
EndChar

StartChar: at
Encoding: 64 64 230
Width: 660
GlyphClass: 1
Flags: W
LayerCount: 2
Fore
SplineSet
141 84 m 128,-1,1
 80 168 80 168 80 320 c 2,2,-1
 80 480 l 2,3,4
 80 562 80 562 107 627.5 c 128,-1,5
 134 693 134 693 188.5 731.5 c 128,-1,6
 243 770 243 770 320 770 c 0,7,8
 403 770 403 770 455 750.5 c 128,-1,9
 507 731 507 731 533.5 685 c 128,-1,10
 560 639 560 639 560 560 c 2,11,-1
 560 160 l 1,12,-1
 480 160 l 1,13,-1
 480 200 l 1,14,15
 480 186 480 186 452 173 c 128,-1,16
 424 160 424 160 400 160 c 0,17,18
 356 160 356 160 319 181 c 128,-1,19
 282 202 282 202 261 239 c 128,-1,20
 240 276 240 276 240 320 c 2,21,-1
 240 420 l 2,22,23
 240 463 240 463 261.5 500 c 128,-1,24
 283 537 283 537 320 558.5 c 128,-1,25
 357 580 357 580 400 580 c 0,26,27
 424 580 424 580 452 567 c 128,-1,28
 480 554 480 554 480 540 c 1,29,-1
 480 560 l 2,30,31
 480 640 480 640 434 665 c 128,-1,32
 388 690 388 690 320 690 c 0,33,34
 280 690 280 690 243 662 c 128,-1,35
 206 634 206 634 183 586 c 128,-1,36
 160 538 160 538 160 480 c 2,37,-1
 160 320 l 2,38,39
 160 218 160 218 198.5 149 c 128,-1,40
 237 80 237 80 320 80 c 2,41,-1
 560 80 l 1,42,-1
 560 0 l 1,43,-1
 320 0 l 2,44,0
 202 0 202 0 141 84 c 128,-1,1
457.5 253.5 m 128,-1,46
 480 277 480 277 480 320 c 2,47,-1
 480 420 l 2,48,49
 480 463 480 463 457.5 486.5 c 128,-1,50
 435 510 435 510 400 510 c 256,51,52
 365 510 365 510 342.5 486.5 c 128,-1,53
 320 463 320 463 320 420 c 2,54,-1
 320 320 l 2,55,56
 320 277 320 277 342.5 253.5 c 128,-1,57
 365 230 365 230 400 230 c 256,58,45
 435 230 435 230 457.5 253.5 c 128,-1,46
EndSplineSet
EndChar

StartChar: ampersand
Encoding: 38 38 231
Width: 640
GlyphClass: 1
Flags: W
LayerCount: 2
Fore
SplineSet
500 0 m 1,0,1
 494 12 494 12 452 62 c 2,2,-1
 436 82 l 1,3,4
 375 -10 375 -10 300 -10 c 0,5,6
 186 -10 186 -10 133 47 c 128,-1,7
 80 104 80 104 80 200 c 0,8,9
 80 290 80 290 209 398 c 1,10,11
 140 521 140 521 140 600 c 0,12,13
 140 676 140 676 183 723 c 128,-1,14
 226 770 226 770 300 770 c 256,15,16
 374 770 374 770 417 723 c 128,-1,17
 460 676 460 676 460 600 c 0,18,19
 460 526 460 526 410 469.5 c 128,-1,20
 360 413 360 413 308 384 c 1,21,22
 357 301 357 301 422 214 c 1,23,24
 440 263 440 263 450 312.5 c 128,-1,25
 460 362 460 362 460 400 c 1,26,-1
 540 400 l 1,27,28
 540 363 540 363 521.5 288 c 128,-1,29
 503 213 503 213 472 146 c 1,30,31
 488 124 488 124 501 107.5 c 128,-1,32
 514 91 514 91 523 79 c 0,33,34
 572 14 572 14 580 0 c 1,35,-1
 500 0 l 1,0,1
273 444 m 1,37,38
 288 454 288 454 300 460 c 0,39,40
 380 500 380 500 380 600 c 0,41,42
 380 643 380 643 355.5 671.5 c 128,-1,43
 331 700 331 700 300 700 c 256,44,45
 269 700 269 700 244.5 671.5 c 128,-1,46
 220 643 220 643 220 600 c 0,47,36
 220 545 220 545 273 444 c 1,37,38
345 81.5 m 128,-1,49
 368 103 368 103 388 141 c 1,50,51
 299 253 299 253 244 340 c 1,52,53
 209 310 209 310 184.5 273 c 128,-1,54
 160 236 160 236 160 200 c 0,55,56
 160 138 160 138 197 99 c 128,-1,57
 234 60 234 60 300 60 c 0,58,48
 322 60 322 60 345 81.5 c 128,-1,49
EndSplineSet
EndChar

StartChar: paragraph
Encoding: 182 182 232
Width: 600
GlyphClass: 1
Flags: W
LayerCount: 2
Fore
SplineSet
360 760 m 1,0,-1
 360 -200 l 1,1,-1
 280 -200 l 1,2,-1
 280 360 l 1,3,4
 190 360 190 360 135 415 c 128,-1,5
 80 470 80 470 80 560 c 256,6,7
 80 650 80 650 135 705 c 128,-1,8
 190 760 190 760 280 760 c 2,9,-1
 360 760 l 1,0,-1
440 760 m 1,10,-1
 520 760 l 1,11,-1
 520 -200 l 1,12,-1
 440 -200 l 1,13,-1
 440 760 l 1,10,-1
EndSplineSet
EndChar

StartChar: copyright
Encoding: 169 169 234
Width: 600
GlyphClass: 1
Flags: W
LayerCount: 2
Fore
SplineSet
134.5 29 m 128,-1,1
 68 68 68 68 29 134.5 c 128,-1,2
 -10 201 -10 201 -10 280 c 256,3,4
 -10 359 -10 359 29 425.5 c 128,-1,5
 68 492 68 492 134.5 531 c 128,-1,6
 201 570 201 570 280 570 c 256,7,8
 359 570 359 570 425.5 531 c 128,-1,9
 492 492 492 492 531 425.5 c 128,-1,10
 570 359 570 359 570 280 c 256,11,12
 570 201 570 201 531 134.5 c 128,-1,13
 492 68 492 68 425.5 29 c 128,-1,14
 359 -10 359 -10 280 -10 c 256,15,0
 201 -10 201 -10 134.5 29 c 128,-1,1
380 89.5 m 128,-1,17
 426 119 426 119 453 169.5 c 128,-1,18
 480 220 480 220 480 280 c 256,19,20
 480 340 480 340 453 390.5 c 128,-1,21
 426 441 426 441 380 470.5 c 128,-1,22
 334 500 334 500 280 500 c 256,23,24
 226 500 226 500 180 470.5 c 128,-1,25
 134 441 134 441 107 390.5 c 128,-1,26
 80 340 80 340 80 280 c 256,27,28
 80 220 80 220 107 169.5 c 128,-1,29
 134 119 134 119 180 89.5 c 128,-1,30
 226 60 226 60 280 60 c 256,31,16
 334 60 334 60 380 89.5 c 128,-1,17
194 180 m 128,-1,33
 160 220 160 220 160 280 c 256,34,35
 160 340 160 340 194 380 c 128,-1,36
 228 420 228 420 280 420 c 0,37,38
 324 420 324 420 354 393.5 c 128,-1,39
 384 367 384 367 400 320 c 1,40,-1
 320 320 l 1,41,42
 313 334 313 334 301 342 c 128,-1,43
 289 350 289 350 280 350 c 0,44,45
 265 350 265 350 252.5 329.5 c 128,-1,46
 240 309 240 309 240 280 c 256,47,48
 240 251 240 251 252.5 230.5 c 128,-1,49
 265 210 265 210 280 210 c 0,50,51
 289 210 289 210 299.5 218.5 c 128,-1,52
 310 227 310 227 310 240 c 1,53,-1
 400 240 l 1,54,55
 384 193 384 193 354 166.5 c 128,-1,56
 324 140 324 140 280 140 c 0,57,32
 228 140 228 140 194 180 c 128,-1,33
EndSplineSet
EndChar

StartChar: degree
Encoding: 176 176 237
Width: 600
GlyphClass: 1
Flags: W
LayerCount: 2
Fore
SplineSet
240 421.5 m 128,-1,1
 203 443 203 443 181.5 480 c 128,-1,2
 160 517 160 517 160 560 c 256,3,4
 160 603 160 603 181.5 640 c 128,-1,5
 203 677 203 677 240 698.5 c 128,-1,6
 277 720 277 720 320 720 c 256,7,8
 363 720 363 720 400 698.5 c 128,-1,9
 437 677 437 677 458.5 640 c 128,-1,10
 480 603 480 603 480 560 c 256,11,12
 480 517 480 517 458.5 480 c 128,-1,13
 437 443 437 443 400 421.5 c 128,-1,14
 363 400 363 400 320 400 c 256,15,0
 277 400 277 400 240 421.5 c 128,-1,1
376 498 m 128,-1,17
 400 526 400 526 400 560 c 256,18,19
 400 594 400 594 376 622 c 128,-1,20
 352 650 352 650 320 650 c 256,21,22
 288 650 288 650 264 622 c 128,-1,23
 240 594 240 594 240 560 c 256,24,25
 240 526 240 526 264 498 c 128,-1,26
 288 470 288 470 320 470 c 256,27,16
 352 470 352 470 376 498 c 128,-1,17
EndSplineSet
EndChar

StartChar: bar
Encoding: 124 124 238
Width: 400
GlyphClass: 1
Flags: W
LayerCount: 2
Fore
SplineSet
160 760 m 1,0,-1
 240 760 l 1,1,-1
 240 -200 l 1,2,-1
 160 -200 l 1,3,-1
 160 760 l 1,0,-1
EndSplineSet
EndChar

StartChar: brokenbar
Encoding: 166 166 239
Width: 400
GlyphClass: 1
Flags: W
LayerCount: 2
Fore
SplineSet
160 760 m 1,0,-1
 240 760 l 1,1,-1
 240 400 l 1,2,-1
 160 400 l 1,3,-1
 160 760 l 1,0,-1
160 160 m 1,4,-1
 240 160 l 1,5,-1
 240 -200 l 1,6,-1
 160 -200 l 1,7,-1
 160 160 l 1,4,-1
EndSplineSet
EndChar

StartChar: uni0307
Encoding: 775 775 246
Width: 0
GlyphClass: 4
Flags: W
AnchorPoint: "Anchor-5" -140 760 basemark 0
AnchorPoint: "Anchor-5" -140 560 mark 0
AnchorPoint: "Anchor-3" -140 560 mark 0
AnchorPoint: "Anchor-0" -140 560 mark 0
LayerCount: 2
Fore
SplineSet
-182.5 667.5 m 128,-1,1
 -200 685 -200 685 -200 710 c 256,2,3
 -200 735 -200 735 -182.5 752.5 c 128,-1,4
 -165 770 -165 770 -140 770 c 256,5,6
 -115 770 -115 770 -97.5 752.5 c 128,-1,7
 -80 735 -80 735 -80 710 c 256,8,9
 -80 685 -80 685 -97.5 667.5 c 128,-1,10
 -115 650 -115 650 -140 650 c 256,11,0
 -165 650 -165 650 -182.5 667.5 c 128,-1,1
EndSplineSet
EndChar

StartChar: gravecomb
Encoding: 768 768 247
Width: 0
GlyphClass: 4
Flags: W
AnchorPoint: "Anchor-5" -160 760 basemark 0
AnchorPoint: "Anchor-5" -160 560 mark 0
AnchorPoint: "Anchor-3" -160 560 mark 0
AnchorPoint: "Anchor-0" -160 560 mark 0
LayerCount: 2
Fore
SplineSet
-80 640 m 1,0,-1
 -220 760 l 1,1,-1
 -340 760 l 1,2,-1
 -160 640 l 1,3,-1
 -80 640 l 1,0,-1
EndSplineSet
EndChar

StartChar: acutecomb
Encoding: 769 769 248
Width: 0
GlyphClass: 4
Flags: W
AnchorPoint: "Anchor-5" -260 760 basemark 0
AnchorPoint: "Anchor-5" -260 560 mark 0
AnchorPoint: "Anchor-3" -260 560 mark 0
AnchorPoint: "Anchor-0" -260 560 mark 0
LayerCount: 2
Fore
SplineSet
-340 640 m 1,0,-1
 -200 760 l 1,1,-1
 -80 760 l 1,2,-1
 -260 640 l 1,3,-1
 -340 640 l 1,0,-1
EndSplineSet
EndChar

StartChar: uni0302
Encoding: 770 770 249
Width: 0
GlyphClass: 4
Flags: W
AnchorPoint: "Anchor-5" -320 760 basemark 0
AnchorPoint: "Anchor-5" -320 560 mark 0
AnchorPoint: "Anchor-3" -320 560 mark 0
AnchorPoint: "Anchor-0" -320 560 mark 0
LayerCount: 2
Fore
SplineSet
-480 640 m 1,0,-1
 -360 760 l 1,1,-1
 -280 760 l 1,2,-1
 -160 640 l 1,3,-1
 -240 640 l 1,4,-1
 -320 700 l 1,5,-1
 -400 640 l 1,6,-1
 -480 640 l 1,0,-1
EndSplineSet
EndChar

StartChar: uni030A
Encoding: 778 778 250
Width: 0
GlyphClass: 4
Flags: W
AnchorPoint: "Anchor-5" -360 770 basemark 0
AnchorPoint: "Anchor-5" -360 560 mark 0
AnchorPoint: "Anchor-3" -360 560 mark 0
AnchorPoint: "Anchor-0" -360 560 mark 0
LayerCount: 2
Fore
SplineSet
-416.5 643.5 m 128,-1,1
 -440 667 -440 667 -440 700 c 256,2,3
 -440 733 -440 733 -416.5 756.5 c 128,-1,4
 -393 780 -393 780 -360 780 c 256,5,6
 -327 780 -327 780 -303.5 756.5 c 128,-1,7
 -280 733 -280 733 -280 700 c 256,8,9
 -280 667 -280 667 -303.5 643.5 c 128,-1,10
 -327 620 -327 620 -360 620 c 256,11,0
 -393 620 -393 620 -416.5 643.5 c 128,-1,1
-332 666.5 m 128,-1,13
 -320 683 -320 683 -320 700 c 256,14,15
 -320 717 -320 717 -332 733.5 c 128,-1,16
 -344 750 -344 750 -360 750 c 256,17,18
 -376 750 -376 750 -388 733.5 c 128,-1,19
 -400 717 -400 717 -400 700 c 256,20,21
 -400 683 -400 683 -388 666.5 c 128,-1,22
 -376 650 -376 650 -360 650 c 256,23,12
 -344 650 -344 650 -332 666.5 c 128,-1,13
EndSplineSet
EndChar

StartChar: tildecomb
Encoding: 771 771 251
Width: 0
GlyphClass: 4
Flags: W
AnchorPoint: "Anchor-5" -280 770 basemark 0
AnchorPoint: "Anchor-5" -280 560 mark 0
AnchorPoint: "Anchor-3" -280 560 mark 0
AnchorPoint: "Anchor-0" -280 560 mark 0
LayerCount: 2
Fore
SplineSet
-329 694 m 128,-1,1
 -319 688 -319 688 -302 673 c 0,2,3
 -279 653 -279 653 -258 641.5 c 128,-1,4
 -237 630 -237 630 -210 630 c 0,5,6
 -179 630 -179 630 -149 650 c 128,-1,7
 -119 670 -119 670 -99.5 700.5 c 128,-1,8
 -80 731 -80 731 -80 760 c 1,9,-1
 -150 760 l 1,10,11
 -148 739 -148 739 -167.5 719.5 c 128,-1,12
 -187 700 -187 700 -210 700 c 0,13,14
 -221 700 -221 700 -231 706 c 128,-1,15
 -241 712 -241 712 -258 727 c 0,16,17
 -281 747 -281 747 -302 758.5 c 128,-1,18
 -323 770 -323 770 -350 770 c 0,19,20
 -381 770 -381 770 -411.5 750 c 128,-1,21
 -442 730 -442 730 -461 699.5 c 128,-1,22
 -480 669 -480 669 -480 640 c 1,23,-1
 -410 640 l 1,24,25
 -412 661 -412 661 -392.5 680.5 c 128,-1,26
 -373 700 -373 700 -350 700 c 0,27,0
 -339 700 -339 700 -329 694 c 128,-1,1
EndSplineSet
EndChar

StartChar: uni0327
Encoding: 807 807 252
Width: 0
GlyphClass: 4
Flags: W
AnchorPoint: "Anchor-4" -260 -200 basemark 0
AnchorPoint: "Anchor-4" -260 0 mark 0
AnchorPoint: "Anchor-2" -260 0 mark 0
AnchorPoint: "Anchor-1" -260 0 mark 0
LayerCount: 2
Fore
SplineSet
-200 10 m 1,0,-1
 -240 -60 l 1,1,2
 -190 -69 -190 -69 -155 -87 c 128,-1,3
 -120 -105 -120 -105 -120 -130 c 0,4,5
 -120 -164 -120 -164 -190 -181.5 c 128,-1,6
 -260 -199 -260 -199 -360 -200 c 1,7,-1
 -360 -160 l 1,8,9
 -293 -159 -293 -159 -246.5 -152 c 128,-1,10
 -200 -145 -200 -145 -200 -130 c 256,11,12
 -200 -115 -200 -115 -246.5 -108 c 128,-1,13
 -293 -101 -293 -101 -360 -100 c 1,14,-1
 -280 10 l 1,15,-1
 -200 10 l 1,0,-1
EndSplineSet
EndChar
